<svg viewBox="0 0 386 125" fill="none"
    xmlns="http://www.w3.org/2000/svg">
    <g filter="url(#filter0_d_75_15)">
        <path d="M208.712 96.96C204.488 96.96 200.68 96.224 197.288 94.752C193.896 93.28 191.08 91.104 188.84 88.224L195.56 82.464C197.48 84.704 199.56 86.336 201.8 87.36C204.104 88.32 206.696 88.8 209.576 88.8C210.728 88.8 211.784 88.672 212.744 88.416C213.768 88.096 214.632 87.648 215.336 87.072C216.104 86.496 216.68 85.824 217.064 85.056C217.448 84.224 217.64 83.328 217.64 82.368C217.64 80.704 217.032 79.36 215.816 78.336C215.176 77.888 214.152 77.408 212.744 76.896C211.4 76.32 209.64 75.744 207.464 75.168C203.752 74.208 200.712 73.12 198.344 71.904C195.976 70.688 194.152 69.312 192.872 67.776C191.912 66.56 191.208 65.248 190.76 63.84C190.312 62.368 190.088 60.768 190.088 59.04C190.088 56.928 190.536 55.008 191.432 53.28C192.392 51.488 193.672 49.952 195.272 48.672C196.936 47.328 198.856 46.304 201.032 45.6C203.272 44.896 205.64 44.544 208.136 44.544C210.504 44.544 212.84 44.864 215.144 45.504C217.512 46.144 219.688 47.072 221.672 48.288C223.656 49.504 225.32 50.944 226.664 52.608L221 58.848C219.784 57.632 218.44 56.576 216.968 55.68C215.56 54.72 214.12 53.984 212.648 53.472C211.176 52.96 209.832 52.704 208.616 52.704C207.272 52.704 206.056 52.832 204.968 53.088C203.88 53.344 202.952 53.728 202.184 54.24C201.48 54.752 200.936 55.392 200.552 56.16C200.168 56.928 199.976 57.792 199.976 58.752C200.04 59.584 200.232 60.384 200.552 61.152C200.936 61.856 201.448 62.464 202.088 62.976C202.792 63.488 203.848 64.032 205.256 64.608C206.664 65.184 208.456 65.728 210.632 66.24C213.832 67.072 216.456 68 218.504 69.024C220.616 69.984 222.28 71.104 223.496 72.384C224.776 73.6 225.672 75.008 226.184 76.608C226.696 78.208 226.952 80 226.952 81.984C226.952 84.864 226.12 87.456 224.456 89.76C222.856 92 220.68 93.76 217.928 95.04C215.176 96.32 212.104 96.96 208.712 96.96ZM261.37 96.96C256.186 96.96 251.578 95.872 247.546 93.696C243.578 91.456 240.442 88.416 238.138 84.576C235.898 80.736 234.778 76.32 234.778 71.328C234.778 67.36 235.418 63.744 236.698 60.48C237.978 57.216 239.738 54.4 241.978 52.032C244.282 49.6 247.002 47.744 250.138 46.464C253.338 45.12 256.794 44.448 260.506 44.448C263.77 44.448 266.81 45.088 269.626 46.368C272.442 47.584 274.874 49.28 276.922 51.456C279.034 53.632 280.634 56.224 281.722 59.232C282.874 62.176 283.418 65.408 283.354 68.928L283.258 73.152H242.074L239.866 65.28H274.714L273.274 66.912V64.608C273.082 62.496 272.378 60.608 271.162 58.944C269.946 57.28 268.41 55.968 266.554 55.008C264.698 54.048 262.682 53.568 260.506 53.568C257.05 53.568 254.138 54.24 251.77 55.584C249.402 56.864 247.61 58.784 246.394 61.344C245.178 63.84 244.57 66.944 244.57 70.656C244.57 74.176 245.306 77.248 246.778 79.872C248.25 82.432 250.33 84.416 253.018 85.824C255.706 87.232 258.81 87.936 262.33 87.936C264.826 87.936 267.13 87.52 269.242 86.688C271.418 85.856 273.754 84.352 276.25 82.176L281.242 89.184C279.706 90.72 277.818 92.064 275.578 93.216C273.402 94.368 271.066 95.296 268.57 96C266.138 96.64 263.738 96.96 261.37 96.96ZM294.1 96V45.6H304.084V61.44L303.124 57.6C303.828 55.168 305.012 52.96 306.676 50.976C308.404 48.992 310.356 47.424 312.531 46.272C314.772 45.12 317.076 44.544 319.444 44.544C320.532 44.544 321.556 44.64 322.516 44.832C323.54 45.024 324.34 45.248 324.916 45.504L322.324 56.256C321.556 55.936 320.692 55.68 319.732 55.488C318.836 55.232 317.94 55.104 317.044 55.104C315.316 55.104 313.652 55.456 312.052 56.16C310.516 56.8 309.14 57.728 307.924 58.944C306.772 60.096 305.844 61.472 305.14 63.072C304.436 64.608 304.084 66.304 304.084 68.16V96H294.1ZM336.754 95.616L332.146 88.416L366.61 68.64V75.072L332.146 55.296L336.754 48.096L371.41 67.968V75.744L336.754 95.616Z" fill="#E0E1DD"/>
        <path d="M197.288 94.752L196.89 95.6693L197.288 94.752ZM188.84 88.224L188.189 87.4647L187.465 88.0853L188.051 88.8379L188.84 88.224ZM195.56 82.464L196.319 81.8132L195.668 81.054L194.909 81.7047L195.56 82.464ZM201.8 87.36L201.384 88.2695L201.4 88.2765L201.415 88.2831L201.8 87.36ZM212.744 88.416L213.002 89.3822L213.022 89.3768L213.042 89.3705L212.744 88.416ZM215.336 87.072L214.736 86.272L214.719 86.2847L214.703 86.298L215.336 87.072ZM217.064 85.056L217.958 85.5032L217.965 85.4892L217.972 85.4751L217.064 85.056ZM215.816 78.336L216.46 77.5711L216.426 77.5424L216.389 77.5168L215.816 78.336ZM212.744 76.896L212.35 77.8151L212.376 77.8262L212.402 77.8358L212.744 76.896ZM207.464 75.168L207.72 74.2013L207.714 74.1999L207.464 75.168ZM198.344 71.904L198.801 71.0144L198.344 71.904ZM192.872 67.776L192.087 68.3956L192.095 68.406L192.104 68.4162L192.872 67.776ZM190.76 63.84L189.803 64.1312L189.807 64.1432L190.76 63.84ZM191.432 53.28L190.55 52.8077L190.544 52.8197L191.432 53.28ZM195.272 48.672L195.897 49.4529L195.9 49.4499L195.272 48.672ZM201.032 45.6L200.732 44.646L200.724 44.6486L201.032 45.6ZM215.144 45.504L214.876 46.4675L214.883 46.4694L215.144 45.504ZM221.672 48.288L221.149 49.1406L221.672 48.288ZM226.664 52.608L227.404 53.2801L227.98 52.6459L227.442 51.9797L226.664 52.608ZM221 58.848L220.293 59.5551L221.035 60.2973L221.74 59.5201L221 58.848ZM216.968 55.68L216.405 56.5062L216.426 56.5208L216.448 56.5342L216.968 55.68ZM212.648 53.472L212.319 54.4165L212.648 53.472ZM204.968 53.088L204.739 52.1146L204.968 53.088ZM202.184 54.24L201.629 53.4079L201.612 53.4193L201.596 53.4313L202.184 54.24ZM200.552 56.16L199.658 55.7128H199.658L200.552 56.16ZM199.976 58.752H198.976V58.7904L198.979 58.8287L199.976 58.752ZM200.552 61.152L199.629 61.5366L199.649 61.5849L199.674 61.6309L200.552 61.152ZM202.088 62.976L201.463 63.7569L201.481 63.7712L201.5 63.7847L202.088 62.976ZM210.632 66.24L210.884 65.2722L210.872 65.2692L210.861 65.2666L210.632 66.24ZM218.504 69.024L218.057 69.9184L218.073 69.9267L218.09 69.9344L218.504 69.024ZM223.496 72.384L222.771 73.0727L222.789 73.0913L222.807 73.109L223.496 72.384ZM224.456 89.76L223.645 89.1745L223.642 89.1788L224.456 89.76ZM217.928 95.04L218.35 95.9467L217.928 95.04ZM208.712 95.96C204.606 95.96 200.936 95.2449 197.686 93.8347L196.89 95.6693C200.424 97.2031 204.37 97.96 208.712 97.96V95.96ZM197.686 93.8347C194.446 92.4285 191.765 90.3559 189.629 87.6101L188.051 88.8379C190.395 91.8521 193.346 94.1315 196.89 95.6693L197.686 93.8347ZM189.491 88.9833L196.211 83.2233L194.909 81.7047L188.189 87.4647L189.491 88.9833ZM194.801 83.1148C196.797 85.4434 198.989 87.1744 201.384 88.2695L202.216 86.4505C200.131 85.4976 198.163 83.9646 196.319 81.8132L194.801 83.1148ZM201.415 88.2831C203.859 89.3011 206.584 89.8 209.576 89.8V87.8C206.808 87.8 204.349 87.3389 202.185 86.4369L201.415 88.2831ZM209.576 89.8C210.801 89.8 211.946 89.6639 213.002 89.3822L212.486 87.4498C211.623 87.6801 210.655 87.8 209.576 87.8V89.8ZM213.042 89.3705C214.167 89.019 215.15 88.5162 215.969 87.846L214.703 86.298C214.114 86.7798 213.369 87.173 212.446 87.4615L213.042 89.3705ZM215.936 87.872C216.813 87.214 217.497 86.4257 217.958 85.5032L216.17 84.6088C215.863 85.2223 215.395 85.778 214.736 86.272L215.936 87.872ZM217.972 85.4751C218.419 84.5054 218.64 83.4656 218.64 82.368H216.64C216.64 83.1904 216.477 83.9426 216.156 84.6369L217.972 85.4751ZM218.64 82.368C218.64 80.4248 217.914 78.795 216.46 77.5711L215.172 79.1009C216.15 79.925 216.64 80.9832 216.64 82.368H218.64ZM216.389 77.5168C215.639 76.9917 214.515 76.4761 213.086 75.9562L212.402 77.8358C213.789 78.3399 214.713 78.7843 215.243 79.1552L216.389 77.5168ZM213.138 75.9769C211.732 75.3743 209.921 74.7839 207.72 74.2013L207.208 76.1347C209.359 76.7041 211.068 77.2657 212.35 77.8151L213.138 75.9769ZM207.714 74.1999C204.045 73.251 201.081 72.1855 198.801 71.0144L197.887 72.7936C200.343 74.0545 203.459 75.165 207.214 76.1361L207.714 74.1999ZM198.801 71.0144C196.515 69.8405 194.811 68.5405 193.64 67.1358L192.104 68.4162C193.493 70.0835 195.437 71.5355 197.887 72.7936L198.801 71.0144ZM193.657 67.1564C192.768 66.0302 192.123 64.8246 191.713 63.5368L189.807 64.1432C190.293 65.6714 191.056 67.0898 192.087 68.3956L193.657 67.1564ZM191.717 63.5488C191.301 62.182 191.088 60.6813 191.088 59.04H189.088C189.088 60.8547 189.323 62.554 189.803 64.1312L191.717 63.5488ZM191.088 59.04C191.088 57.0743 191.504 55.3142 192.32 53.7403L190.544 52.8197C189.568 54.7018 189.088 56.7817 189.088 59.04H191.088ZM192.313 53.7522C193.209 52.0804 194.401 50.6491 195.897 49.4529L194.647 47.8911C192.943 49.2549 191.575 50.8956 190.551 52.8078L192.313 53.7522ZM195.9 49.4499C197.463 48.1881 199.272 47.2204 201.34 46.5514L200.724 44.6486C198.44 45.3876 196.409 46.4679 194.644 47.8941L195.9 49.4499ZM201.332 46.554C203.469 45.8824 205.735 45.544 208.136 45.544V43.544C205.545 43.544 203.075 43.9096 200.732 44.646L201.332 46.554ZM208.136 45.544C210.413 45.544 212.659 45.8515 214.876 46.4675L215.412 44.5405C213.021 43.8765 210.595 43.544 208.136 43.544V45.544ZM214.883 46.4694C217.164 47.0858 219.251 47.9771 221.149 49.1406L222.195 47.4354C220.125 46.1669 217.86 45.2022 215.405 44.5386L214.883 46.4694ZM221.149 49.1406C223.045 50.3022 224.62 51.6686 225.886 53.2363L227.442 51.9797C226.02 50.2194 224.267 48.7058 222.195 47.4354L221.149 49.1406ZM225.924 51.9359L220.26 58.1759L221.74 59.5201L227.404 53.2801L225.924 51.9359ZM221.707 58.1409C220.435 56.8685 219.028 55.7631 217.488 54.8258L216.448 56.5342C217.852 57.3889 219.133 58.3955 220.293 59.5551L221.707 58.1409ZM217.531 54.8538C216.057 53.8488 214.539 53.071 212.977 52.5275L212.319 54.4165C213.701 54.897 215.063 55.5912 216.405 56.5062L217.531 54.8538ZM212.977 52.5275C211.427 51.9886 209.97 51.704 208.616 51.704V53.704C209.694 53.704 210.925 53.9314 212.319 54.4165L212.977 52.5275ZM208.616 51.704C207.21 51.704 205.915 51.8378 204.739 52.1146L205.197 54.0614C206.197 53.8262 207.334 53.704 208.616 53.704V51.704ZM204.739 52.1146C203.559 52.3923 202.515 52.8175 201.629 53.4079L202.739 55.072C203.389 54.6385 204.201 54.2957 205.197 54.0614L204.739 52.1146ZM201.596 53.4313C200.764 54.0361 200.114 54.7994 199.658 55.7128L201.446 56.6072C201.758 55.9846 202.196 55.4679 202.772 55.0487L201.596 53.4313ZM199.658 55.7128C199.196 56.6353 198.976 57.6553 198.976 58.752H200.976C200.976 57.9287 201.14 57.2207 201.446 56.6072L199.658 55.7128ZM198.979 58.8287C199.051 59.7663 199.268 60.6703 199.629 61.5366L201.475 60.7674C201.196 60.0977 201.029 59.4017 200.973 58.6753L198.979 58.8287ZM199.674 61.6309C200.123 62.4539 200.722 63.1639 201.463 63.7569L202.713 62.1951C202.174 61.7641 201.749 61.2581 201.43 60.6731L199.674 61.6309ZM201.5 63.7847C202.3 64.3664 203.441 64.9461 204.877 65.5335L205.635 63.6824C204.255 63.1179 203.284 62.6096 202.676 62.1673L201.5 63.7847ZM204.877 65.5335C206.351 66.1363 208.197 66.6944 210.403 67.2134L210.861 65.2666C208.715 64.7616 206.977 64.2317 205.635 63.6824L204.877 65.5335ZM210.38 67.2078C213.54 68.0293 216.092 68.9361 218.057 69.9184L218.951 68.1296C216.82 67.0639 214.124 66.1147 210.884 65.2722L210.38 67.2078ZM218.09 69.9344C220.12 70.857 221.667 71.9102 222.771 73.0727L224.221 71.6953C222.893 70.2978 221.112 69.111 218.918 68.1136L218.09 69.9344ZM222.807 73.109C223.972 74.2154 224.773 75.481 225.232 76.9128L227.136 76.3032C226.571 74.535 225.58 72.9846 224.185 71.659L222.807 73.109ZM225.232 76.9128C225.707 78.3983 225.952 80.0852 225.952 81.984H227.952C227.952 79.9148 227.685 78.0177 227.136 76.3032L225.232 76.9128ZM225.952 81.984C225.952 84.6568 225.184 87.0434 223.645 89.1745L225.267 90.3455C227.056 87.8687 227.952 85.0712 227.952 81.984H225.952ZM223.642 89.1788C222.153 91.2642 220.118 92.9184 217.506 94.1333L218.35 95.9467C221.242 94.6015 223.559 92.7358 225.27 90.3412L223.642 89.1788ZM217.506 94.1333C214.901 95.345 211.976 95.96 208.712 95.96V97.96C212.232 97.96 215.451 97.295 218.35 95.9467L217.506 94.1333ZM247.546 93.696L247.054 94.5668L247.062 94.5715L247.071 94.576L247.546 93.696ZM238.138 84.576L237.274 85.0799L237.28 85.0905L238.138 84.576ZM236.698 60.48L237.628 60.8451V60.8451L236.698 60.48ZM241.978 52.032L241.252 51.3443L241.251 51.3448L241.978 52.032ZM250.137 46.464L250.515 47.3899L250.525 47.386L250.137 46.464ZM269.626 46.368L269.212 47.2784L269.22 47.2823L269.229 47.2861L269.626 46.368ZM276.922 51.456L276.193 52.1414L276.199 52.147L276.204 52.1525L276.922 51.456ZM281.722 59.232L280.781 59.5721L280.786 59.5843L280.79 59.5964L281.722 59.232ZM283.354 68.928L284.353 68.9507L284.353 68.9462L283.354 68.928ZM283.257 73.152V74.152H284.235L284.257 73.1747L283.257 73.152ZM242.074 73.152L241.111 73.4221L241.315 74.152H242.074V73.152ZM239.866 65.28V64.28H238.546L238.903 65.5501L239.866 65.28ZM274.714 65.28L275.463 65.9416L276.929 64.28H274.714V65.28ZM273.273 66.912H272.273V69.5568L274.023 67.5736L273.273 66.912ZM273.273 64.608H274.273V64.5626L274.269 64.5175L273.273 64.608ZM271.161 58.944L271.969 58.354L271.161 58.944ZM266.554 55.008L266.094 55.8962L266.554 55.008ZM251.77 55.584L252.245 56.4637L252.254 56.4588L252.263 56.4537L251.77 55.584ZM246.394 61.344L247.293 61.782L247.297 61.7731L246.394 61.344ZM246.778 79.872L245.905 80.3613L245.911 80.3705L246.778 79.872ZM253.018 85.824L252.553 86.7098H252.553L253.018 85.824ZM269.242 86.688L268.884 85.7539L268.875 85.7576L269.242 86.688ZM276.25 82.176L277.064 81.5958L276.424 80.6973L275.592 81.4222L276.25 82.176ZM281.242 89.184L281.949 89.8911L282.547 89.2929L282.056 88.6038L281.242 89.184ZM275.577 93.216L275.12 92.3267L275.11 92.3322L275.577 93.216ZM268.57 96L268.824 96.9671L268.832 96.9648L268.841 96.9624L268.57 96ZM261.369 95.96C256.329 95.96 251.888 94.9034 248.02 92.816L247.071 94.576C251.267 96.8406 256.042 97.96 261.369 97.96V95.96ZM248.037 92.8252C244.217 90.6687 241.208 87.7504 238.995 84.0615L237.28 85.0905C239.675 89.0816 242.938 92.2433 247.054 94.5668L248.037 92.8252ZM239.001 84.0721C236.861 80.4032 235.778 76.1652 235.778 71.328H233.778C233.778 76.4748 234.934 81.0688 237.274 85.0799L239.001 84.0721ZM235.778 71.328C235.778 67.4686 236.4 63.9785 237.628 60.8451L235.767 60.1149C234.435 63.5095 233.778 67.2514 233.778 71.328H235.778ZM237.628 60.8451C238.865 57.6915 240.559 54.9871 242.704 52.7192L241.251 51.3448C238.916 53.8129 237.09 56.7405 235.767 60.1149L237.628 60.8451ZM242.703 52.7197C244.909 50.3921 247.51 48.6167 250.515 47.3898L249.76 45.5382C246.493 46.8713 243.654 48.8079 241.252 51.3443L242.703 52.7197ZM250.525 47.386C253.594 46.097 256.917 45.448 260.506 45.448V43.448C256.67 43.448 253.081 44.143 249.75 45.542L250.525 47.386ZM260.506 45.448C263.635 45.448 266.533 46.0607 269.212 47.2784L270.039 45.4576C267.086 44.1153 263.904 43.448 260.506 43.448V45.448ZM269.229 47.2861C271.923 48.4494 274.241 50.0674 276.193 52.1414L277.65 50.7706C275.506 48.4926 272.96 46.7186 270.022 45.4499L269.229 47.2861ZM276.204 52.1525C278.212 54.2213 279.739 56.6899 280.781 59.5721L282.662 58.8919C281.528 55.7581 279.855 53.0427 277.639 50.7595L276.204 52.1525ZM280.79 59.5964C281.889 62.4055 282.416 65.5057 282.354 68.9098L284.353 68.9462C284.419 65.3103 283.858 61.9465 282.653 58.8676L280.79 59.5964ZM282.354 68.9053L282.258 73.1293L284.257 73.1747L284.353 68.9507L282.354 68.9053ZM283.257 72.152H242.074V74.152H283.257V72.152ZM243.036 72.8819L240.828 65.0099L238.903 65.5501L241.111 73.4221L243.036 72.8819ZM239.866 66.28H274.714V64.28H239.866V66.28ZM273.964 64.6184L272.524 66.2504L274.023 67.5736L275.463 65.9416L273.964 64.6184ZM274.273 66.912V64.608H272.273V66.912H274.273ZM274.269 64.5175C274.061 62.2305 273.295 60.1687 271.969 58.354L270.354 59.534C271.46 61.0473 272.102 62.7615 272.278 64.6985L274.269 64.5175ZM271.969 58.354C270.66 56.5632 269.004 55.1499 267.013 54.1198L266.094 55.8962C267.815 56.7861 269.231 57.9968 270.354 59.534L271.969 58.354ZM267.013 54.1198C265.009 53.0833 262.835 52.568 260.506 52.568V54.568C262.528 54.568 264.386 55.0127 266.094 55.8962L267.013 54.1198ZM260.506 52.568C256.922 52.568 253.83 53.2649 251.276 54.7143L252.263 56.4537C254.445 55.2151 257.177 54.568 260.506 54.568V52.568ZM251.294 54.7043C248.729 56.0908 246.792 58.1739 245.49 60.9149L247.297 61.7731C248.427 59.3941 250.074 57.6372 252.245 56.4637L251.294 54.7043ZM245.495 60.906C244.194 63.5764 243.569 66.841 243.569 70.656H245.569C245.569 67.047 246.161 64.1036 247.292 61.782L245.495 60.906ZM243.569 70.656C243.569 74.318 244.336 77.5642 245.905 80.3613L247.65 79.3828C246.275 76.9318 245.569 74.034 245.569 70.656H243.569ZM245.911 80.3705C247.48 83.1 249.702 85.2162 252.553 86.7098L253.482 84.9382C250.957 83.6158 249.019 81.764 247.644 79.3735L245.911 80.3705ZM252.553 86.7098C255.406 88.204 258.674 88.936 262.329 88.936V86.936C258.945 86.936 256.005 86.26 253.482 84.9382L252.553 86.7098ZM262.329 88.936C264.938 88.936 267.368 88.5008 269.608 87.6184L268.875 85.7576C266.891 86.5392 264.713 86.936 262.329 86.936V88.936ZM269.599 87.6221C271.92 86.7344 274.356 85.1531 276.907 82.9298L275.592 81.4222C273.151 83.5509 270.915 84.9776 268.884 85.7539L269.599 87.6221ZM275.435 82.7562L280.427 89.7642L282.056 88.6038L277.064 81.5958L275.435 82.7562ZM280.534 88.4769C279.082 89.929 277.282 91.2147 275.12 92.3267L276.035 94.1053C278.353 92.9133 280.329 91.511 281.949 89.8911L280.534 88.4769ZM275.11 92.3322C272.999 93.4494 270.73 94.3517 268.298 95.0376L268.841 96.9624C271.401 96.2403 273.804 95.2866 276.045 94.0998L275.11 92.3322ZM268.315 95.0329C265.961 95.6524 263.646 95.96 261.369 95.96V97.96C263.829 97.96 266.314 97.6276 268.824 96.9671L268.315 95.0329ZM294.1 96H293.1V97H294.1V96ZM294.1 45.6V44.6H293.1V45.6H294.1ZM304.084 45.6H305.084V44.6H304.084V45.6ZM304.084 61.44L303.113 61.6825L305.084 61.44H304.084ZM303.124 57.6L302.163 57.3219L302.088 57.5809L302.153 57.8425L303.124 57.6ZM306.675 50.976L305.921 50.3192L305.915 50.3262L305.909 50.3334L306.675 50.976ZM312.532 46.272L312.074 45.3826L312.064 45.3882L312.532 46.272ZM322.516 44.832L322.319 45.8126L322.331 45.8149L322.516 44.832ZM324.915 45.504L325.888 45.7384L326.083 44.9285L325.322 44.5902L324.915 45.504ZM322.324 56.256L321.939 57.1791L323.021 57.6299L323.296 56.4904L322.324 56.256ZM319.732 55.488L319.457 56.4495L319.496 56.4606L319.535 56.4686L319.732 55.488ZM312.051 56.16L312.436 57.0831L312.445 57.0793L312.454 57.0753L312.051 56.16ZM307.924 58.944L308.631 59.6511V59.6511L307.924 58.944ZM305.14 63.072L306.049 63.4887L306.052 63.4817L306.055 63.4747L305.14 63.072ZM304.084 96V97H305.084V96H304.084ZM295.1 96V45.6H293.1V96H295.1ZM294.1 46.6H304.084V44.6H294.1V46.6ZM303.084 45.6V61.44H305.084V45.6H303.084ZM305.054 61.1975L304.094 57.3575L302.153 57.8425L303.113 61.6825L305.054 61.1975ZM304.084 57.8781C304.748 55.5829 305.865 53.4984 307.442 51.6186L305.909 50.3334C304.158 52.4216 302.907 54.7531 302.163 57.3219L304.084 57.8781ZM307.43 51.6328C309.083 49.735 310.939 48.2465 312.999 47.1558L312.064 45.3882C309.772 46.6015 307.724 48.249 305.921 50.3192L307.43 51.6328ZM312.989 47.1613C315.097 46.0773 317.245 45.544 319.443 45.544V43.544C316.906 43.544 314.446 44.1627 312.074 45.3827L312.989 47.1613ZM319.443 45.544C320.473 45.544 321.431 45.6348 322.319 45.8126L322.712 43.8514C321.68 43.6452 320.59 43.544 319.443 43.544V45.544ZM322.331 45.8149C323.321 46.0005 324.035 46.2071 324.509 46.4178L325.322 44.5902C324.644 44.2889 323.758 44.0475 322.7 43.8491L322.331 45.8149ZM323.943 45.2696L321.351 56.0216L323.296 56.4904L325.888 45.7384L323.943 45.2696ZM322.708 55.3329C321.87 54.9836 320.941 54.7101 319.928 54.5074L319.535 56.4686C320.442 56.6499 321.241 56.8884 321.939 57.1791L322.708 55.3329ZM320.006 54.5265C319.024 54.246 318.036 54.104 317.044 54.104V56.104C317.843 56.104 318.647 56.218 319.457 56.4495L320.006 54.5265ZM317.044 54.104C315.175 54.104 313.374 54.4855 311.649 55.2447L312.454 57.0753C313.929 56.4265 315.456 56.104 317.044 56.104V54.104ZM311.667 55.2369C310.006 55.9288 308.522 56.9317 307.216 58.2369L308.631 59.6511C309.757 58.5243 311.025 57.6712 312.436 57.0831L311.667 55.2369ZM307.216 58.2369C305.971 59.4828 304.974 60.9641 304.224 62.6693L306.055 63.4747C306.713 61.9799 307.573 60.7092 308.631 59.6511L307.216 58.2369ZM304.23 62.6553C303.461 64.3345 303.084 66.1745 303.084 68.16H305.084C305.084 66.4335 305.41 64.8815 306.049 63.4887L304.23 62.6553ZM303.084 68.16V96H305.084V68.16H303.084ZM304.084 95H294.1V97H304.084V95ZM336.754 95.616L335.912 96.1551L336.425 96.9573L337.252 96.4835L336.754 95.616ZM332.146 88.416L331.649 87.5487L330.738 88.071L331.304 88.9551L332.146 88.416ZM366.61 68.64H367.61V66.9132L366.113 67.7726L366.61 68.64ZM366.61 75.072L366.113 75.9393L367.61 76.7988V75.072H366.61ZM332.146 55.296L331.304 54.7569L330.738 55.641L331.649 56.1633L332.146 55.296ZM336.754 48.096L337.252 47.2285L336.425 46.7547L335.912 47.5569L336.754 48.096ZM371.41 67.968H372.41V67.3887L371.908 67.1005L371.41 67.968ZM371.41 75.744L371.908 76.6115L372.41 76.3233V75.744H371.41ZM337.597 95.077L332.989 87.8769L331.304 88.9551L335.912 96.1551L337.597 95.077ZM332.644 89.2833L367.108 69.5073L366.113 67.7726L331.649 87.5487L332.644 89.2833ZM365.61 68.64V75.072H367.61V68.64H365.61ZM367.108 74.2047L332.644 54.4286L331.649 56.1633L366.113 75.9393L367.108 74.2047ZM332.989 55.8351L337.597 48.6351L335.912 47.5569L331.304 54.7569L332.989 55.8351ZM336.257 48.9635L370.913 68.8355L371.908 67.1005L337.252 47.2285L336.257 48.9635ZM370.41 67.968V75.744H372.41V67.968H370.41ZM370.913 74.8765L336.257 94.7485L337.252 96.4835L371.908 76.6115L370.913 74.8765Z" fill="#50B2C0"/>
    </g>
    <g filter="url(#filter1_d_75_15)">
        <path d="M132.728 108.672L172.28 28.8H181.784L142.328 108.672H132.728Z" fill="url(#paint0_linear_75_15)"/>
        <path d="M132.728 108.672L131.832 108.228L131.117 109.672H132.728V108.672ZM172.28 28.8V27.8H171.659L171.384 28.3562L172.28 28.8ZM181.784 28.8L182.681 29.2429L183.393 27.8H181.784V28.8ZM142.328 108.672V109.672H142.949L143.225 109.115L142.328 108.672ZM133.624 109.116L173.176 29.2438L171.384 28.3562L131.832 108.228L133.624 109.116ZM172.28 29.8H181.784V27.8H172.28V29.8ZM180.887 28.3571L141.431 108.229L143.225 109.115L182.681 29.2429L180.887 28.3571ZM142.328 107.672H132.728V109.672H142.328V107.672Z" fill="url(#paint1_linear_75_15)"/>
    </g>
    <g filter="url(#filter2_d_75_15)">
        <path d="M39.456 100.616L4.8 80.744V72.968L39.456 53.096L44.064 60.296L9.6 80.072V73.64L44.064 93.416L39.456 100.616ZM80.7758 101.96C75.5918 101.96 70.9838 100.872 66.9518 98.696C62.9838 96.456 59.8478 93.416 57.5438 89.576C55.3038 85.736 54.1838 81.32 54.1838 76.328C54.1838 72.36 54.8238 68.744 56.1038 65.48C57.3838 62.216 59.1438 59.4 61.3838 57.032C63.6878 54.6 66.4078 52.744 69.5438 51.464C72.7438 50.12 76.1998 49.448 79.9118 49.448C83.1758 49.448 86.2158 50.088 89.0318 51.368C91.8478 52.584 94.2798 54.28 96.3278 56.456C98.4398 58.632 100.04 61.224 101.128 64.232C102.28 67.176 102.824 70.408 102.76 73.928L102.664 78.152H61.4798L59.2718 70.28H94.1198L92.6798 71.912V69.608C92.4878 67.496 91.7838 65.608 90.5678 63.944C89.3518 62.28 87.8158 60.968 85.9598 60.008C84.1038 59.048 82.0878 58.568 79.9118 58.568C76.4558 58.568 73.5438 59.24 71.1758 60.584C68.8078 61.864 67.0158 63.784 65.7998 66.344C64.5838 68.84 63.9758 71.944 63.9758 75.656C63.9758 79.176 64.7118 82.248 66.1838 84.872C67.6558 87.432 69.7358 89.416 72.4238 90.824C75.1118 92.232 78.2158 92.936 81.7358 92.936C84.2318 92.936 86.5358 92.52 88.6478 91.688C90.8238 90.856 93.1598 89.352 95.6558 87.176L100.648 94.184C99.1118 95.72 97.2238 97.064 94.9838 98.216C92.8078 99.368 90.4718 100.296 87.9758 101C85.5438 101.64 83.1438 101.96 80.7758 101.96ZM113.698 101V29.96H123.586V101H113.698Z" fill="#1B263B"/>
        <path d="M39.456 100.616L38.9586 101.484L39.7848 101.957L40.2983 101.155L39.456 100.616ZM4.8 80.744H3.8V81.3233L4.30257 81.6115L4.8 80.744ZM4.8 72.968L4.30257 72.1005L3.8 72.3887V72.968H4.8ZM39.456 53.096L40.2983 52.5569L39.7848 51.7547L38.9586 52.2285L39.456 53.096ZM44.064 60.296L44.5617 61.1633L45.4721 60.641L44.9063 59.7569L44.064 60.296ZM9.6 80.072H8.6V81.7988L10.0977 80.9393L9.6 80.072ZM9.6 73.64L10.0977 72.7726L8.6 71.9132V73.64H9.6ZM44.064 93.416L44.9063 93.9551L45.4721 93.071L44.5617 92.5487L44.064 93.416ZM39.9534 99.7485L5.29743 79.8765L4.30257 81.6115L38.9586 101.484L39.9534 99.7485ZM5.8 80.744V72.968H3.8V80.744H5.8ZM5.29743 73.8355L39.9534 53.9635L38.9586 52.2285L4.30257 72.1005L5.29743 73.8355ZM38.6137 53.6351L43.2217 60.8351L44.9063 59.7569L40.2983 52.5569L38.6137 53.6351ZM43.5663 59.4286L9.1023 79.2047L10.0977 80.9393L44.5617 61.1633L43.5663 59.4286ZM10.6 80.072V73.64H8.6V80.072H10.6ZM9.1023 74.5073L43.5663 94.2833L44.5617 92.5487L10.0977 72.7726L9.1023 74.5073ZM43.2217 92.8769L38.6137 100.077L40.2983 101.155L44.9063 93.9551L43.2217 92.8769ZM66.9518 98.696L66.4602 99.5668L66.4684 99.5715L66.4768 99.576L66.9518 98.696ZM57.5438 89.576L56.6799 90.0799L56.6863 90.0905L57.5438 89.576ZM56.1038 65.48L57.0347 65.8451V65.8451L56.1038 65.48ZM61.3838 57.032L60.6578 56.3443L60.6573 56.3448L61.3838 57.032ZM69.5437 51.464L69.9217 52.3899L69.931 52.386L69.5437 51.464ZM89.0318 51.368L88.618 52.2784L88.6266 52.2823L88.6353 52.2861L89.0318 51.368ZM96.3278 56.456L95.5996 57.1414L95.6048 57.147L95.6102 57.1525L96.3278 56.456ZM101.128 64.232L100.187 64.5721L100.192 64.5843L100.197 64.5964L101.128 64.232ZM102.76 73.928L103.76 73.9507L103.76 73.9462L102.76 73.928ZM102.664 78.152V79.152H103.641L103.663 78.1747L102.664 78.152ZM61.4798 78.152L60.5169 78.4221L60.7216 79.152H61.4798V78.152ZM59.2718 70.28V69.28H57.9527L58.3089 70.5501L59.2718 70.28ZM94.1198 70.28L94.8696 70.9416L96.3357 69.28H94.1198V70.28ZM92.6797 71.912H91.6797V74.5568L93.4296 72.5736L92.6797 71.912ZM92.6797 69.608H93.6797V69.5626L93.6756 69.5175L92.6797 69.608ZM90.5677 63.944L91.3751 63.354L90.5677 63.944ZM85.9598 60.008L85.5003 60.8962L85.9598 60.008ZM71.1758 60.584L71.6513 61.4637L71.6604 61.4588L71.6694 61.4537L71.1758 60.584ZM65.7998 66.344L66.6988 66.782L66.703 66.7731L65.7998 66.344ZM66.1838 84.872L65.3116 85.3613L65.3168 85.3705L66.1838 84.872ZM72.4238 90.824L71.9597 91.7098H71.9597L72.4238 90.824ZM88.6478 91.688L88.2906 90.7539L88.2812 90.7576L88.6478 91.688ZM95.6558 87.176L96.4702 86.5958L95.8302 85.6973L94.9986 86.4222L95.6558 87.176ZM100.648 94.184L101.355 94.8911L101.953 94.2929L101.462 93.6038L100.648 94.184ZM94.9837 98.216L94.5264 97.3267L94.5159 97.3322L94.9837 98.216ZM87.9758 101L88.2302 101.967L88.2387 101.965L88.2472 101.962L87.9758 101ZM80.7757 100.96C75.7355 100.96 71.2945 99.9034 67.4267 97.816L66.4768 99.576C70.673 101.841 75.448 102.96 80.7757 102.96V100.96ZM67.4433 97.8252C63.6233 95.6687 60.6146 92.7504 58.4012 89.0615L56.6863 90.0905C59.0809 94.0816 62.3442 97.2433 66.4602 99.5668L67.4433 97.8252ZM58.4075 89.0721C56.2673 85.4032 55.1838 81.1652 55.1838 76.328H53.1838C53.1838 81.4748 54.3402 86.0688 56.68 90.0799L58.4075 89.0721ZM55.1838 76.328C55.1838 72.4686 55.8059 68.9785 57.0347 65.8451L55.1728 65.1149C53.8416 68.5095 53.1838 72.2514 53.1838 76.328H55.1838ZM57.0347 65.8451C58.2714 62.6915 59.9649 59.9871 62.1102 57.7192L60.6573 56.3448C58.3226 58.8129 56.4961 61.7405 55.1728 65.1149L57.0347 65.8451ZM62.1097 57.7197C64.3148 55.3921 66.9158 53.6167 69.9216 52.3898L69.1659 50.5382C65.8997 51.8713 63.0607 53.8079 60.6578 56.3443L62.1097 57.7197ZM69.931 52.386C73 51.097 76.3234 50.448 79.9118 50.448V48.448C76.0761 48.448 72.4875 49.143 69.1565 50.542L69.931 52.386ZM79.9118 50.448C83.041 50.448 85.939 51.0607 88.618 52.2784L89.4456 50.4576C86.4925 49.1153 83.3105 48.448 79.9118 48.448V50.448ZM88.6353 52.2861C91.3294 53.4494 93.6476 55.0674 95.5996 57.1414L97.056 55.7706C94.9119 53.4926 92.3661 51.7186 89.4282 50.4499L88.6353 52.2861ZM95.6102 57.1525C97.6181 59.2213 99.1449 61.6899 100.187 64.5721L102.068 63.8919C100.935 60.7581 99.2614 58.0427 97.0453 55.7595L95.6102 57.1525ZM100.197 64.5964C101.296 67.4055 101.822 70.5057 101.76 73.9098L103.76 73.9462C103.826 70.3103 103.264 66.9465 102.059 63.8676L100.197 64.5964ZM101.76 73.9053L101.664 78.1293L103.663 78.1747L103.759 73.9507L101.76 73.9053ZM102.664 77.152H61.4798V79.152H102.664V77.152ZM62.4426 77.8819L60.2346 70.0099L58.3089 70.5501L60.5169 78.4221L62.4426 77.8819ZM59.2718 71.28H94.1198V69.28H59.2718V71.28ZM93.3699 69.6184L91.9299 71.2504L93.4296 72.5736L94.8696 70.9416L93.3699 69.6184ZM93.6797 71.912V69.608H91.6797V71.912H93.6797ZM93.6756 69.5175C93.4677 67.2305 92.7013 65.1687 91.3751 63.354L89.7604 64.534C90.8662 66.0473 91.5078 67.7615 91.6839 69.6985L93.6756 69.5175ZM91.3751 63.354C90.0665 61.5632 88.4107 60.1499 86.4192 59.1198L85.5003 60.8962C87.2208 61.7861 88.637 62.9968 89.7604 64.534L91.3751 63.354ZM86.4192 59.1198C84.4152 58.0833 82.2408 57.568 79.9118 57.568V59.568C81.9347 59.568 83.7923 60.0127 85.5003 60.8962L86.4192 59.1198ZM79.9118 57.568C76.3285 57.568 73.236 58.2649 70.6821 59.7143L71.6694 61.4537C73.8515 60.2151 76.5831 59.568 79.9118 59.568V57.568ZM70.7002 59.7043C68.1352 61.0908 66.1985 63.1739 64.8965 65.9149L66.703 66.7731C67.833 64.3941 69.4803 62.6372 71.6513 61.4637L70.7002 59.7043ZM64.9008 65.906C63.5998 68.5764 62.9757 71.841 62.9757 75.656H64.9758C64.9758 72.047 65.5677 69.1036 66.6987 66.782L64.9008 65.906ZM62.9757 75.656C62.9757 79.318 63.7425 82.5642 65.3116 85.3613L67.0559 84.3828C65.681 81.9318 64.9758 79.034 64.9758 75.656H62.9757ZM65.3168 85.3705C66.8863 88.1 69.1083 90.2162 71.9597 91.7098L72.8878 89.9382C70.3632 88.6158 68.4252 86.764 67.0507 84.3735L65.3168 85.3705ZM71.9597 91.7098C74.8123 93.204 78.0801 93.936 81.7357 93.936V91.936C78.3514 91.936 75.4112 91.26 72.8878 89.9382L71.9597 91.7098ZM81.7357 93.936C84.3447 93.936 86.7745 93.5008 89.0143 92.6184L88.2812 90.7576C86.2971 91.5392 84.1188 91.936 81.7357 91.936V93.936ZM89.0049 92.6221C91.3264 91.7344 93.7626 90.1531 96.3129 87.9298L94.9986 86.4222C92.5569 88.5509 90.3211 89.9776 88.2906 90.7539L89.0049 92.6221ZM94.8413 87.7562L99.8333 94.7642L101.462 93.6038L96.4702 86.5958L94.8413 87.7562ZM99.9407 93.4769C98.4886 94.929 96.6886 96.2147 94.5264 97.3267L95.4411 99.1053C97.7589 97.9133 99.7349 96.511 101.355 94.8911L99.9407 93.4769ZM94.5159 97.3322C92.4056 98.4494 90.1358 99.3517 87.7043 100.038L88.2472 101.962C90.8077 101.24 93.2099 100.287 95.4516 99.0998L94.5159 97.3322ZM87.7213 100.033C85.3672 100.652 83.0527 100.96 80.7757 100.96V102.96C83.2348 102.96 85.7203 102.628 88.2302 101.967L87.7213 100.033ZM113.698 101H112.698V102H113.698V101ZM113.698 29.96V28.96H112.698V29.96H113.698ZM123.586 29.96H124.586V28.96H123.586V29.96ZM123.586 101V102H124.586V101H123.586ZM114.698 101V29.96H112.698V101H114.698ZM113.698 30.96H123.586V28.96H113.698V30.96ZM122.586 29.96V101H124.586V29.96H122.586ZM123.586 100H113.698V102H123.586V100Z" fill="#E0E1DD"/>
    </g>
    <defs>
        <filter id="filter0_d_75_15" x="184.84" y="44.448" width="200.57" height="70.512" filterUnits="userSpaceOnUse" color-interpolation-filters="sRGB">
            <feFlood flood-opacity="0" result="BackgroundImageFix"/>
            <feColorMatrix in="SourceAlpha" type="matrix" values="0 0 0 0 0 0 0 0 0 0 0 0 0 0 0 0 0 0 127 0" result="hardAlpha"/>
            <feOffset dx="5" dy="9"/>
            <feGaussianBlur stdDeviation="4.5"/>
            <feComposite in2="hardAlpha" operator="out"/>
            <feColorMatrix type="matrix" values="0 0 0 0 0 0 0 0 0 0 0 0 0 0 0 0 0 0 0.25 0"/>
            <feBlend mode="normal" in2="BackgroundImageFix" result="effect1_dropShadow_75_15"/>
            <feBlend mode="normal" in="SourceGraphic" in2="effect1_dropShadow_75_15" result="shape"/>
        </filter>
        <filter id="filter1_d_75_15" x="128.728" y="28.8" width="67.0559" height="97.8719" filterUnits="userSpaceOnUse" color-interpolation-filters="sRGB">
            <feFlood flood-opacity="0" result="BackgroundImageFix"/>
            <feColorMatrix in="SourceAlpha" type="matrix" values="0 0 0 0 0 0 0 0 0 0 0 0 0 0 0 0 0 0 127 0" result="hardAlpha"/>
            <feOffset dx="5" dy="9"/>
            <feGaussianBlur stdDeviation="4.5"/>
            <feComposite in2="hardAlpha" operator="out"/>
            <feColorMatrix type="matrix" values="0 0 0 0 0 0 0 0 0 0 0 0 0 0 0 0 0 0 0.25 0"/>
            <feBlend mode="normal" in2="BackgroundImageFix" result="effect1_dropShadow_75_15"/>
            <feBlend mode="normal" in="SourceGraphic" in2="effect1_dropShadow_75_15" result="shape"/>
        </filter>
        <filter id="filter2_d_75_15" x="0.800049" y="29.96" width="136.786" height="90" filterUnits="userSpaceOnUse" color-interpolation-filters="sRGB">
            <feFlood flood-opacity="0" result="BackgroundImageFix"/>
            <feColorMatrix in="SourceAlpha" type="matrix" values="0 0 0 0 0 0 0 0 0 0 0 0 0 0 0 0 0 0 127 0" result="hardAlpha"/>
            <feOffset dx="5" dy="9"/>
            <feGaussianBlur stdDeviation="4.5"/>
            <feComposite in2="hardAlpha" operator="out"/>
            <feColorMatrix type="matrix" values="0 0 0 0 0 0 0 0 0 0 0 0 0 0 0 0 0 0 0.25 0"/>
            <feBlend mode="normal" in2="BackgroundImageFix" result="effect1_dropShadow_75_15"/>
            <feBlend mode="normal" in="SourceGraphic" in2="effect1_dropShadow_75_15" result="shape"/>
        </filter>
        <linearGradient id="paint0_linear_75_15" x1="158" y1="0" x2="158" y2="120" gradientUnits="userSpaceOnUse">
            <stop offset="0.476262" stop-color="#E0E1DD"/>
            <stop offset="0.71779" stop-color="#1B263B"/>
        </linearGradient>
        <linearGradient id="paint1_linear_75_15" x1="158" y1="0" x2="158" y2="120" gradientUnits="userSpaceOnUse">
            <stop stop-color="#E0E1DD"/>
            <stop offset="1" stop-color="#E0E1DD"/>
        </linearGradient>
    </defs>
</svg>
