<svg width="250" height="100" viewBox="0 0 250 100" fill="none" xmlns="http://www.w3.org/2000/svg">
<g filter="url(#filter0_d_75_2)">
<path d="M136.856 68.48C134.744 68.48 132.84 68.112 131.144 67.376C129.448 66.64 128.04 65.552 126.92 64.112L130.28 61.232C131.24 62.352 132.28 63.168 133.4 63.68C134.552 64.16 135.848 64.4 137.288 64.4C137.864 64.4 138.392 64.336 138.872 64.208C139.384 64.048 139.816 63.824 140.168 63.536C140.552 63.248 140.84 62.912 141.032 62.528C141.224 62.112 141.32 61.664 141.32 61.184C141.32 60.352 141.016 59.68 140.408 59.168C140.088 58.944 139.576 58.704 138.872 58.448C138.2 58.16 137.32 57.872 136.232 57.584C134.376 57.104 132.856 56.56 131.672 55.952C130.488 55.344 129.576 54.656 128.936 53.888C128.456 53.28 128.104 52.624 127.88 51.92C127.656 51.184 127.544 50.384 127.544 49.52C127.544 48.464 127.768 47.504 128.216 46.64C128.696 45.744 129.336 44.976 130.136 44.336C130.968 43.664 131.928 43.152 133.016 42.8C134.136 42.448 135.32 42.272 136.568 42.272C137.752 42.272 138.92 42.432 140.072 42.752C141.256 43.072 142.344 43.536 143.336 44.144C144.328 44.752 145.16 45.472 145.832 46.304L143 49.424C142.392 48.816 141.72 48.288 140.984 47.84C140.28 47.36 139.56 46.992 138.824 46.736C138.088 46.48 137.416 46.352 136.808 46.352C136.136 46.352 135.528 46.416 134.984 46.544C134.44 46.672 133.976 46.864 133.592 47.12C133.24 47.376 132.968 47.696 132.776 48.08C132.584 48.464 132.488 48.896 132.488 49.376C132.52 49.792 132.616 50.192 132.776 50.576C132.968 50.928 133.224 51.232 133.544 51.488C133.896 51.744 134.424 52.016 135.128 52.304C135.832 52.592 136.728 52.864 137.816 53.12C139.416 53.536 140.728 54 141.752 54.512C142.808 54.992 143.64 55.552 144.248 56.192C144.888 56.8 145.336 57.504 145.592 58.304C145.848 59.104 145.976 60 145.976 60.992C145.976 62.432 145.56 63.728 144.728 64.88C143.928 66 142.84 66.88 141.464 67.52C140.088 68.16 138.552 68.48 136.856 68.48ZM163.185 68.48C160.593 68.48 158.289 67.936 156.273 66.848C154.289 65.728 152.721 64.208 151.569 62.288C150.449 60.368 149.889 58.16 149.889 55.664C149.889 53.68 150.209 51.872 150.849 50.24C151.489 48.608 152.369 47.2 153.489 46.016C154.641 44.8 156.001 43.872 157.569 43.232C159.169 42.56 160.897 42.224 162.753 42.224C164.385 42.224 165.905 42.544 167.313 43.184C168.721 43.792 169.937 44.64 170.961 45.728C172.017 46.816 172.817 48.112 173.361 49.616C173.937 51.088 174.209 52.704 174.177 54.464L174.129 56.576H153.537L152.433 52.64H169.857L169.137 53.456V52.304C169.041 51.248 168.689 50.304 168.081 49.472C167.473 48.64 166.705 47.984 165.777 47.504C164.849 47.024 163.841 46.784 162.753 46.784C161.025 46.784 159.569 47.12 158.385 47.792C157.201 48.432 156.305 49.392 155.697 50.672C155.089 51.92 154.785 53.472 154.785 55.328C154.785 57.088 155.153 58.624 155.889 59.936C156.625 61.216 157.665 62.208 159.009 62.912C160.353 63.616 161.905 63.968 163.665 63.968C164.913 63.968 166.065 63.76 167.121 63.344C168.209 62.928 169.377 62.176 170.625 61.088L173.121 64.592C172.353 65.36 171.409 66.032 170.289 66.608C169.201 67.184 168.033 67.648 166.785 68C165.569 68.32 164.369 68.48 163.185 68.48ZM179.55 68V42.8H184.542V50.72L184.062 48.8C184.414 47.584 185.006 46.48 185.838 45.488C186.702 44.496 187.678 43.712 188.766 43.136C189.886 42.56 191.038 42.272 192.222 42.272C192.766 42.272 193.278 42.32 193.758 42.416C194.27 42.512 194.67 42.624 194.958 42.752L193.662 48.128C193.278 47.968 192.846 47.84 192.366 47.744C191.918 47.616 191.47 47.552 191.022 47.552C190.158 47.552 189.326 47.728 188.526 48.08C187.758 48.4 187.07 48.864 186.462 49.472C185.886 50.048 185.422 50.736 185.07 51.536C184.718 52.304 184.542 53.152 184.542 54.08V68H179.55ZM200.877 67.808L198.573 64.208L215.805 54.32V57.536L198.573 47.648L200.877 44.048L218.205 53.984V57.872L200.877 67.808Z" fill="#E0E1DD"/>
<path d="M131.144 67.376L130.746 68.2933L130.746 68.2933L131.144 67.376ZM126.92 64.112L126.269 63.3527L125.545 63.9733L126.131 64.7259L126.92 64.112ZM130.28 61.232L131.039 60.5812L130.388 59.822L129.629 60.4727L130.28 61.232ZM133.4 63.68L132.984 64.5895L133 64.5965L133.015 64.6031L133.4 63.68ZM138.872 64.208L139.13 65.1742L139.15 65.1688L139.17 65.1625L138.872 64.208ZM140.168 63.536L139.568 62.736L139.551 62.7487L139.535 62.762L140.168 63.536ZM141.032 62.528L141.926 62.9752L141.933 62.9612L141.94 62.9471L141.032 62.528ZM140.408 59.168L141.052 58.4031L141.018 58.3744L140.981 58.3488L140.408 59.168ZM138.872 58.448L138.478 59.3671L138.504 59.3782L138.53 59.3878L138.872 58.448ZM136.232 57.584L136.488 56.6173L136.482 56.6159L136.232 57.584ZM131.672 55.952L132.129 55.0624L132.129 55.0624L131.672 55.952ZM128.936 53.888L128.151 54.5076L128.159 54.518L128.168 54.5282L128.936 53.888ZM127.88 51.92L126.923 52.2112L126.927 52.2232L127.88 51.92ZM128.216 46.64L127.334 46.1677L127.328 46.1797L128.216 46.64ZM130.136 44.336L130.761 45.1169L130.764 45.1139L130.136 44.336ZM133.016 42.8L132.716 41.846L132.708 41.8486L133.016 42.8ZM140.072 42.752L139.804 43.7155L139.811 43.7174L140.072 42.752ZM143.336 44.144L142.813 44.9966L142.813 44.9966L143.336 44.144ZM145.832 46.304L146.572 46.9761L147.148 46.3419L146.61 45.6757L145.832 46.304ZM143 49.424L142.293 50.1311L143.035 50.8733L143.74 50.0961L143 49.424ZM140.984 47.84L140.421 48.6662L140.442 48.6808L140.464 48.6942L140.984 47.84ZM138.824 46.736L138.495 47.6805L138.495 47.6805L138.824 46.736ZM134.984 46.544L134.755 45.5706L134.755 45.5706L134.984 46.544ZM133.592 47.12L133.037 46.2879L133.02 46.2993L133.004 46.3113L133.592 47.12ZM132.776 48.08L131.882 47.6328L131.882 47.6328L132.776 48.08ZM132.488 49.376H131.488V49.4144L131.491 49.4527L132.488 49.376ZM132.776 50.576L131.853 50.9606L131.873 51.0089L131.898 51.0549L132.776 50.576ZM133.544 51.488L132.919 52.2689L132.937 52.2832L132.956 52.2967L133.544 51.488ZM137.816 53.12L138.068 52.1522L138.056 52.1492L138.045 52.1466L137.816 53.12ZM141.752 54.512L141.305 55.4064L141.321 55.4147L141.338 55.4224L141.752 54.512ZM144.248 56.192L143.523 56.8807L143.541 56.8993L143.559 56.917L144.248 56.192ZM144.728 64.88L143.917 64.2945L143.914 64.2988L144.728 64.88ZM141.464 67.52L141.886 68.4267L141.886 68.4267L141.464 67.52ZM136.856 67.48C134.862 67.48 133.096 67.1329 131.542 66.4587L130.746 68.2933C132.584 69.0911 134.626 69.48 136.856 69.48V67.48ZM131.542 66.4587C129.998 65.7885 128.725 64.8039 127.709 63.4981L126.131 64.7259C127.355 66.3001 128.898 67.4915 130.746 68.2933L131.542 66.4587ZM127.571 64.8713L130.931 61.9913L129.629 60.4727L126.269 63.3527L127.571 64.8713ZM129.521 61.8828C130.557 63.0914 131.709 64.0064 132.984 64.5895L133.816 62.7705C132.851 62.3296 131.923 61.6126 131.039 60.5812L129.521 61.8828ZM133.015 64.6031C134.307 65.1411 135.736 65.4 137.288 65.4V63.4C135.96 63.4 134.797 63.1789 133.785 62.7569L133.015 64.6031ZM137.288 65.4C137.937 65.4 138.554 65.3279 139.13 65.1742L138.614 63.2418C138.231 63.3441 137.791 63.4 137.288 63.4V65.4ZM139.17 65.1625C139.783 64.971 140.334 64.6922 140.801 64.31L139.535 62.762C139.298 62.9558 138.985 63.125 138.574 63.2535L139.17 65.1625ZM140.768 64.336C141.261 63.966 141.657 63.5137 141.926 62.9752L140.138 62.0808C140.023 62.3103 139.843 62.53 139.568 62.736L140.768 64.336ZM141.94 62.9471C142.195 62.3934 142.32 61.8016 142.32 61.184H140.32C140.32 61.5264 140.253 61.8306 140.124 62.1089L141.94 62.9471ZM142.32 61.184C142.32 60.0728 141.898 59.115 141.052 58.4031L139.764 59.9329C140.134 60.245 140.32 60.6312 140.32 61.184H142.32ZM140.981 58.3488C140.551 58.0477 139.939 57.7721 139.214 57.5082L138.53 59.3878C139.213 59.6359 139.625 59.8403 139.835 59.9872L140.981 58.3488ZM139.266 57.5289C138.532 57.2143 137.601 56.9119 136.488 56.6173L135.976 58.5507C137.039 58.8321 137.868 59.1057 138.478 59.3671L139.266 57.5289ZM136.482 56.6159C134.669 56.147 133.225 55.6255 132.129 55.0624L131.215 56.8416C132.487 57.4945 134.083 58.061 135.982 58.5521L136.482 56.6159ZM132.129 55.0624C131.027 54.4965 130.235 53.8845 129.704 53.2478L128.168 54.5282C128.917 55.4275 129.949 56.1915 131.215 56.8416L132.129 55.0624ZM129.721 53.2684C129.312 52.7502 129.019 52.2006 128.833 51.6168L126.927 52.2232C127.189 53.0474 127.6 53.8098 128.151 54.5076L129.721 53.2684ZM128.837 51.6288C128.645 50.998 128.544 50.2973 128.544 49.52H126.544C126.544 50.4707 126.667 51.37 126.923 52.2112L128.837 51.6288ZM128.544 49.52C128.544 48.6103 128.736 47.8102 129.104 47.1003L127.328 46.1797C126.8 47.1978 126.544 48.3177 126.544 49.52H128.544ZM129.097 47.1122C129.513 46.3364 130.065 45.6731 130.761 45.1169L129.511 43.5551C128.607 44.2789 127.879 45.1516 127.335 46.1678L129.097 47.1122ZM130.764 45.1139C131.495 44.5241 132.344 44.0684 133.324 43.7514L132.708 41.8486C131.512 42.2356 130.441 42.8039 129.508 43.5581L130.764 45.1139ZM133.316 43.754C134.333 43.4344 135.415 43.272 136.568 43.272V41.272C135.225 41.272 133.939 41.4616 132.716 41.846L133.316 43.754ZM136.568 43.272C137.661 43.272 138.739 43.4195 139.804 43.7155L140.34 41.7885C139.101 41.4445 137.843 41.272 136.568 41.272V43.272ZM139.811 43.7174C140.908 44.0138 141.907 44.4411 142.813 44.9966L143.859 43.2914C142.781 42.6309 141.604 42.1302 140.333 41.7866L139.811 43.7174ZM142.813 44.9966C143.717 45.5502 144.46 46.1966 145.054 46.9323L146.61 45.6757C145.86 44.7474 144.939 43.9538 143.859 43.2914L142.813 44.9966ZM145.092 45.6319L142.26 48.7519L143.74 50.0961L146.572 46.9761L145.092 45.6319ZM143.707 48.7169C143.043 48.0525 142.308 47.4751 141.504 46.9858L140.464 48.6942C141.132 49.1009 141.741 49.5795 142.293 50.1311L143.707 48.7169ZM141.547 47.0138C140.777 46.4888 139.979 46.079 139.153 45.7915L138.495 47.6805C139.141 47.905 139.783 48.2312 140.421 48.6662L141.547 47.0138ZM139.153 45.7915C138.339 45.5086 137.554 45.352 136.808 45.352V47.352C137.278 47.352 137.837 47.4514 138.495 47.6805L139.153 45.7915ZM136.808 45.352C136.074 45.352 135.387 45.4218 134.755 45.5706L135.213 47.5174C135.669 47.4102 136.198 47.352 136.808 47.352V45.352ZM134.755 45.5706C134.119 45.7203 133.539 45.9535 133.037 46.2879L134.147 47.952C134.413 47.7745 134.761 47.6237 135.213 47.5174L134.755 45.5706ZM133.004 46.3113C132.524 46.6601 132.146 47.1034 131.882 47.6328L133.67 48.5272C133.79 48.2886 133.956 48.0919 134.18 47.9287L133.004 46.3113ZM131.882 47.6328C131.612 48.1713 131.488 48.7593 131.488 49.376H133.488C133.488 49.0327 133.556 48.7567 133.67 48.5272L131.882 47.6328ZM131.491 49.4527C131.531 49.9743 131.652 50.4783 131.853 50.9606L133.699 50.1914C133.58 49.9057 133.509 49.6097 133.485 49.2993L131.491 49.4527ZM131.898 51.0549C132.155 51.5259 132.498 51.9319 132.919 52.2689L134.169 50.7071C133.95 50.5321 133.781 50.3301 133.654 50.0971L131.898 51.0549ZM132.956 52.2967C133.404 52.6224 134.017 52.9301 134.749 53.2295L135.507 51.3785C134.831 51.1019 134.388 50.8656 134.132 50.6793L132.956 52.2967ZM134.749 53.2295C135.519 53.5443 136.469 53.8304 137.587 54.0934L138.045 52.1466C136.987 51.8976 136.145 51.6397 135.507 51.3785L134.749 53.2295ZM137.564 54.0878C139.124 54.4933 140.364 54.9361 141.305 55.4064L142.199 53.6176C141.092 53.0639 139.708 52.5787 138.068 52.1522L137.564 54.0878ZM141.338 55.4224C142.312 55.865 143.027 56.3582 143.523 56.8807L144.973 55.5033C144.253 54.7458 143.304 54.119 142.166 53.6016L141.338 55.4224ZM143.559 56.917C144.084 57.4154 144.437 57.977 144.64 58.6088L146.544 57.9992C146.235 57.031 145.692 56.1846 144.937 55.467L143.559 56.917ZM144.64 58.6088C144.859 59.2943 144.976 60.0852 144.976 60.992H146.976C146.976 59.9148 146.837 58.9137 146.544 57.9992L144.64 58.6088ZM144.976 60.992C144.976 62.2248 144.624 63.3154 143.917 64.2945L145.539 65.4655C146.496 64.1406 146.976 62.6392 146.976 60.992H144.976ZM143.914 64.2988C143.225 65.2642 142.278 66.0385 141.042 66.6133L141.886 68.4267C143.402 67.7215 144.631 66.7358 145.542 65.4612L143.914 64.2988ZM141.042 66.6133C139.813 67.185 138.424 67.48 136.856 67.48V69.48C138.68 69.48 140.363 69.135 141.886 68.4267L141.042 66.6133ZM156.273 66.848L155.781 67.7188L155.789 67.7235L155.798 67.728L156.273 66.848ZM151.569 62.288L150.705 62.7919L150.711 62.8025L151.569 62.288ZM150.849 50.24L151.78 50.6051L151.78 50.6051L150.849 50.24ZM153.489 46.016L152.763 45.3283L152.762 45.3288L153.489 46.016ZM157.569 43.232L157.947 44.1579L157.956 44.154L157.569 43.232ZM167.313 43.184L166.899 44.0944L166.908 44.0983L166.916 44.1021L167.313 43.184ZM170.961 45.728L170.233 46.4134L170.238 46.419L170.243 46.4245L170.961 45.728ZM173.361 49.616L172.42 49.9561L172.425 49.9683L172.43 49.9804L173.361 49.616ZM174.177 54.464L175.177 54.4867L175.177 54.4822L174.177 54.464ZM174.129 56.576V57.576H175.106L175.128 56.5987L174.129 56.576ZM153.537 56.576L152.574 56.8461L152.779 57.576H153.537V56.576ZM152.433 52.64V51.64H151.114L151.47 52.9101L152.433 52.64ZM169.857 52.64L170.607 53.3016L172.073 51.64H169.857V52.64ZM169.137 53.456H168.137V56.1008L169.887 54.1176L169.137 53.456ZM169.137 52.304H170.137V52.2586L170.133 52.2135L169.137 52.304ZM168.081 49.472L168.888 48.882L168.888 48.882L168.081 49.472ZM165.777 47.504L165.317 48.3922L165.317 48.3922L165.777 47.504ZM158.385 47.792L158.86 48.6717L158.869 48.6668L158.878 48.6617L158.385 47.792ZM155.697 50.672L156.596 51.11L156.6 51.1011L155.697 50.672ZM155.889 59.936L155.017 60.4253L155.022 60.4345L155.889 59.936ZM159.009 62.912L158.545 63.7978L158.545 63.7978L159.009 62.912ZM167.121 63.344L166.764 62.4099L166.754 62.4136L167.121 63.344ZM170.625 61.088L171.439 60.5078L170.799 59.6093L169.968 60.3342L170.625 61.088ZM173.121 64.592L173.828 65.2991L174.426 64.7009L173.935 64.0118L173.121 64.592ZM170.289 66.608L169.831 65.7186L169.821 65.7242L170.289 66.608ZM166.785 68L167.039 68.9671L167.048 68.9648L167.056 68.9624L166.785 68ZM163.185 67.48C160.736 67.48 158.599 66.9674 156.748 65.968L155.798 67.728C157.978 68.9046 160.449 69.48 163.185 69.48V67.48ZM156.764 65.9772C154.928 64.9407 153.488 63.5424 152.426 61.7735L150.711 62.8025C151.954 64.8736 153.649 66.5153 155.781 67.7188L156.764 65.9772ZM152.433 61.7841C151.412 60.0352 150.889 58.0052 150.889 55.664H148.889C148.889 58.3148 149.485 60.7008 150.705 62.7919L152.433 61.7841ZM150.889 55.664C150.889 53.7886 151.191 52.1065 151.78 50.6051L149.918 49.8749C149.227 51.6375 148.889 53.5714 148.889 55.664H150.889ZM151.78 50.6051C152.376 49.0835 153.19 47.7871 154.215 46.7032L152.762 45.3288C151.548 46.6129 150.601 48.1325 149.918 49.8749L151.78 50.6051ZM154.215 46.7037C155.268 45.5921 156.509 44.7447 157.947 44.1578L157.191 42.3062C155.493 42.9993 154.014 44.0079 152.763 45.3283L154.215 46.7037ZM157.956 44.154C159.425 43.537 161.02 43.224 162.753 43.224V41.224C160.773 41.224 158.912 41.583 157.182 42.31L157.956 44.154ZM162.753 43.224C164.25 43.224 165.628 43.5167 166.899 44.0944L167.727 42.2736C166.181 41.5713 164.519 41.224 162.753 41.224V43.224ZM166.916 44.1021C168.202 44.6574 169.305 45.4274 170.233 46.4134L171.689 45.0426C170.569 43.8526 169.239 42.9266 167.709 42.2659L166.916 44.1021ZM170.243 46.4245C171.195 47.4053 171.922 48.5779 172.42 49.9561L174.301 49.2759C173.712 47.6461 172.838 46.2267 171.678 45.0315L170.243 46.4245ZM172.43 49.9804C172.953 51.3175 173.207 52.8017 173.177 54.4458L175.177 54.4822C175.211 52.6063 174.921 50.8585 174.292 49.2516L172.43 49.9804ZM173.177 54.4413L173.129 56.5533L175.128 56.5987L175.176 54.4867L173.177 54.4413ZM174.129 55.576H153.537V57.576H174.129V55.576ZM154.5 56.3059L153.396 52.3699L151.47 52.9101L152.574 56.8461L154.5 56.3059ZM152.433 53.64H169.857V51.64H152.433V53.64ZM169.107 51.9784L168.387 52.7944L169.887 54.1176L170.607 53.3016L169.107 51.9784ZM170.137 53.456V52.304H168.137V53.456H170.137ZM170.133 52.2135C170.021 50.9825 169.606 49.8647 168.888 48.882L167.273 50.062C167.771 50.7433 168.061 51.5135 168.141 52.3945L170.133 52.2135ZM168.888 48.882C168.187 47.9232 167.3 47.1659 166.236 46.6158L165.317 48.3922C166.11 48.8021 166.758 49.3568 167.273 50.062L168.888 48.882ZM166.236 46.6158C165.16 46.0593 163.994 45.784 162.753 45.784V47.784C163.688 47.784 164.537 47.9887 165.317 48.3922L166.236 46.6158ZM162.753 45.784C160.897 45.784 159.261 46.1449 157.891 46.9223L158.878 48.6617C159.877 48.0951 161.152 47.784 162.753 47.784V45.784ZM157.909 46.9123C156.528 47.6588 155.487 48.7819 154.793 50.2429L156.6 51.1011C157.122 50.0021 157.873 49.2052 158.86 48.6717L157.909 46.9123ZM154.798 50.234C154.105 51.6564 153.785 53.369 153.785 55.328H155.785C155.785 53.575 156.073 52.1836 156.596 51.11L154.798 50.234ZM153.785 55.328C153.785 57.23 154.184 58.9402 155.017 60.4253L156.761 59.4467C156.122 58.3078 155.785 56.946 155.785 55.328H153.785ZM155.022 60.4345C155.855 61.884 157.037 63.0082 158.545 63.7978L159.473 62.0262C158.292 61.4078 157.394 60.548 156.756 59.4375L155.022 60.4345ZM158.545 63.7978C160.053 64.588 161.769 64.968 163.665 64.968V62.968C162.04 62.968 160.652 62.644 159.473 62.0262L158.545 63.7978ZM163.665 64.968C165.026 64.968 166.303 64.7408 167.487 64.2744L166.754 62.4136C165.826 62.7792 164.8 62.968 163.665 62.968V64.968ZM167.478 64.2781C168.711 63.8064 169.98 62.9771 171.282 61.8418L169.968 60.3342C168.774 61.3749 167.706 62.0496 166.764 62.4099L167.478 64.2781ZM169.81 61.6682L172.306 65.1722L173.935 64.0118L171.439 60.5078L169.81 61.6682ZM172.414 63.8849C171.73 64.569 170.874 65.1827 169.831 65.7187L170.746 67.4973C171.944 66.8813 172.976 66.151 173.828 65.2991L172.414 63.8849ZM169.821 65.7242C168.799 66.2654 167.697 66.7037 166.513 67.0376L167.056 68.9624C168.369 68.5923 169.603 68.1026 170.757 67.4918L169.821 65.7242ZM166.53 67.0329C165.392 67.3324 164.278 67.48 163.185 67.48V69.48C164.46 69.48 165.745 69.3076 167.039 68.9671L166.53 67.0329ZM179.55 68H178.55V69H179.55V68ZM179.55 42.8V41.8H178.55V42.8H179.55ZM184.542 42.8H185.542V41.8H184.542V42.8ZM184.542 50.72L183.572 50.9625L185.542 50.72H184.542ZM184.062 48.8L183.101 48.5219L183.026 48.7809L183.092 49.0425L184.062 48.8ZM185.838 45.488L185.084 44.8312L185.078 44.8382L185.072 44.8454L185.838 45.488ZM188.766 43.136L188.308 42.2466L188.298 42.2522L188.766 43.136ZM193.758 42.416L193.562 43.3966L193.573 43.3989L193.758 42.416ZM194.958 42.752L195.93 42.9864L196.125 42.1765L195.364 41.8382L194.958 42.752ZM193.662 48.128L193.277 49.0511L194.359 49.5019L194.634 48.3624L193.662 48.128ZM192.366 47.744L192.091 48.7055L192.13 48.7166L192.17 48.7246L192.366 47.744ZM188.526 48.08L188.91 49.0031L188.919 48.9993L188.928 48.9953L188.526 48.08ZM186.462 49.472L187.169 50.1791L187.169 50.1791L186.462 49.472ZM185.07 51.536L185.979 51.9527L185.982 51.9457L185.985 51.9387L185.07 51.536ZM184.542 68V69H185.542V68H184.542ZM180.55 68V42.8H178.55V68H180.55ZM179.55 43.8H184.542V41.8H179.55V43.8ZM183.542 42.8V50.72H185.542V42.8H183.542ZM185.512 50.4775L185.032 48.5575L183.092 49.0425L183.572 50.9625L185.512 50.4775ZM185.022 49.0781C185.335 47.9989 185.859 47.0184 186.604 46.1306L185.072 44.8454C184.152 45.9416 183.493 47.1691 183.101 48.5219L185.022 49.0781ZM186.592 46.1448C187.381 45.239 188.261 44.5345 189.234 44.0198L188.298 42.2522C187.094 42.8895 186.023 43.753 185.084 44.8312L186.592 46.1448ZM189.223 44.0253C190.211 43.5173 191.207 43.272 192.222 43.272V41.272C190.869 41.272 189.561 41.6027 188.308 42.2467L189.223 44.0253ZM192.222 43.272C192.707 43.272 193.153 43.3148 193.562 43.3966L193.954 41.4354C193.403 41.3252 192.824 41.272 192.222 41.272V43.272ZM193.573 43.3989C194.052 43.4885 194.366 43.5831 194.552 43.6658L195.364 41.8382C194.974 41.6649 194.488 41.5355 193.942 41.4331L193.573 43.3989ZM193.986 42.5176L192.69 47.8936L194.634 48.3624L195.93 42.9864L193.986 42.5176ZM194.046 47.2049C193.592 47.0156 193.095 46.8701 192.562 46.7634L192.17 48.7246C192.596 48.8099 192.963 48.9204 193.277 49.0511L194.046 47.2049ZM192.64 46.7825C192.107 46.63 191.566 46.552 191.022 46.552V48.552C191.373 48.552 191.729 48.602 192.091 48.7055L192.64 46.7825ZM191.022 46.552C190.017 46.552 189.048 46.7575 188.123 47.1647L188.928 48.9953C189.603 48.6985 190.298 48.552 191.022 48.552V46.552ZM188.141 47.1569C187.249 47.5288 186.452 48.0677 185.755 48.7649L187.169 50.1791C187.688 49.6603 188.267 49.2712 188.91 49.0031L188.141 47.1569ZM185.755 48.7649C185.085 49.4348 184.553 50.2281 184.154 51.1333L185.985 51.9387C186.291 51.2439 186.687 50.6612 187.169 50.1791L185.755 48.7649ZM184.161 51.1193C183.743 52.0305 183.542 53.0225 183.542 54.08H185.542C185.542 53.2815 185.692 52.5775 185.979 51.9527L184.161 51.1193ZM183.542 54.08V68H185.542V54.08H183.542ZM184.542 67H179.55V69H184.542V67ZM200.877 67.808L200.035 68.3471L200.548 69.1493L201.375 68.6755L200.877 67.808ZM198.573 64.208L198.075 63.3407L197.165 63.863L197.731 64.7471L198.573 64.208ZM215.805 54.32H216.805V52.5932L215.307 53.4526L215.805 54.32ZM215.805 57.536L215.307 58.4033L216.805 59.2628V57.536H215.805ZM198.573 47.648L197.731 47.1089L197.165 47.993L198.075 48.5153L198.573 47.648ZM200.877 44.048L201.375 43.1805L200.548 42.7067L200.035 43.5089L200.877 44.048ZM218.205 53.984H219.205V53.4047L218.703 53.1165L218.205 53.984ZM218.205 57.872L218.703 58.7395L219.205 58.4513V57.872H218.205ZM201.719 67.2689L199.415 63.6689L197.731 64.7471L200.035 68.3471L201.719 67.2689ZM199.071 65.0753L216.303 55.1873L215.307 53.4526L198.075 63.3407L199.071 65.0753ZM214.805 54.32V57.536H216.805V54.32H214.805ZM216.303 56.6686L199.071 46.7806L198.075 48.5153L215.307 58.4033L216.303 56.6686ZM199.415 48.1871L201.719 44.5871L200.035 43.5089L197.731 47.1089L199.415 48.1871ZM200.38 44.9155L217.708 54.8515L218.703 53.1165L201.375 43.1805L200.38 44.9155ZM217.205 53.984V57.872H219.205V53.984H217.205ZM217.708 57.0045L200.38 66.9405L201.375 68.6755L218.703 58.7395L217.708 57.0045Z" fill="#50B2C0"/>
</g>
<g filter="url(#filter1_d_75_2)">
<path d="M98.864 74.336L118.64 34.4H123.392L103.664 74.336H98.864Z" fill="url(#paint0_linear_75_2)"/>
<path d="M98.864 74.336L97.9679 73.8922L97.2529 75.336H98.864V74.336ZM118.64 34.4V33.4H118.019L117.744 33.9562L118.64 34.4ZM123.392 34.4L124.289 34.8429L125.001 33.4H123.392V34.4ZM103.664 74.336V75.336H104.285L104.561 74.7789L103.664 74.336ZM99.7601 74.7798L119.536 34.8438L117.744 33.9562L97.9679 73.8922L99.7601 74.7798ZM118.64 35.4H123.392V33.4H118.64V35.4ZM122.495 33.9571L102.767 73.8931L104.561 74.7789L124.289 34.8429L122.495 33.9571ZM103.664 73.336H98.864V75.336H103.664V73.336Z" fill="url(#paint1_linear_75_2)"/>
</g>
<g filter="url(#filter2_d_75_2)">
<path d="M48.728 67.808L31.4 57.872V53.984L48.728 44.048L51.032 47.648L33.8 57.536V54.32L51.032 64.208L48.728 67.808ZM69.3879 68.48C66.7959 68.48 64.4919 67.936 62.4759 66.848C60.4919 65.728 58.9239 64.208 57.7719 62.288C56.6519 60.368 56.0919 58.16 56.0919 55.664C56.0919 53.68 56.4119 51.872 57.0519 50.24C57.6919 48.608 58.5719 47.2 59.6919 46.016C60.8439 44.8 62.2039 43.872 63.7719 43.232C65.3719 42.56 67.0999 42.224 68.9559 42.224C70.5879 42.224 72.1079 42.544 73.5159 43.184C74.9239 43.792 76.1399 44.64 77.1639 45.728C78.2199 46.816 79.0199 48.112 79.5639 49.616C80.1399 51.088 80.4119 52.704 80.3799 54.464L80.3319 56.576H59.7399L58.6359 52.64H76.0599L75.3399 53.456V52.304C75.2439 51.248 74.8919 50.304 74.2839 49.472C73.6759 48.64 72.9079 47.984 71.9799 47.504C71.0519 47.024 70.0439 46.784 68.9559 46.784C67.2279 46.784 65.7719 47.12 64.5879 47.792C63.4039 48.432 62.5079 49.392 61.8999 50.672C61.2919 51.92 60.9879 53.472 60.9879 55.328C60.9879 57.088 61.3559 58.624 62.0919 59.936C62.8279 61.216 63.8679 62.208 65.2119 62.912C66.5559 63.616 68.1079 63.968 69.8679 63.968C71.1159 63.968 72.2679 63.76 73.3239 63.344C74.4119 62.928 75.5799 62.176 76.8279 61.088L79.3239 64.592C78.5559 65.36 77.6119 66.032 76.4919 66.608C75.4039 67.184 74.2359 67.648 72.9879 68C71.7719 68.32 70.5719 68.48 69.3879 68.48ZM85.8489 68V32.48H90.7929V68H85.8489Z" fill="#1B263B"/>
<path d="M48.728 67.808L48.2306 68.6755L49.0568 69.1493L49.5703 68.3471L48.728 67.808ZM31.4 57.872H30.4V58.4513L30.9026 58.7395L31.4 57.872ZM31.4 53.984L30.9026 53.1165L30.4 53.4047V53.984H31.4ZM48.728 44.048L49.5703 43.5089L49.0568 42.7067L48.2306 43.1805L48.728 44.048ZM51.032 47.648L51.5297 48.5153L52.4401 47.993L51.8743 47.1089L51.032 47.648ZM33.8 57.536H32.8V59.2628L34.2977 58.4033L33.8 57.536ZM33.8 54.32L34.2977 53.4526L32.8 52.5932V54.32H33.8ZM51.032 64.208L51.8743 64.7471L52.4401 63.863L51.5297 63.3407L51.032 64.208ZM49.2254 66.9405L31.8974 57.0045L30.9026 58.7395L48.2306 68.6755L49.2254 66.9405ZM32.4 57.872V53.984H30.4V57.872H32.4ZM31.8974 54.8515L49.2254 44.9155L48.2306 43.1805L30.9026 53.1165L31.8974 54.8515ZM47.8857 44.5871L50.1897 48.1871L51.8743 47.1089L49.5703 43.5089L47.8857 44.5871ZM50.5343 46.7806L33.3023 56.6686L34.2977 58.4033L51.5297 48.5153L50.5343 46.7806ZM34.8 57.536V54.32H32.8V57.536H34.8ZM33.3023 55.1873L50.5343 65.0753L51.5297 63.3407L34.2977 53.4526L33.3023 55.1873ZM50.1897 63.6689L47.8857 67.2689L49.5703 68.3471L51.8743 64.7471L50.1897 63.6689ZM62.4759 66.848L61.9843 67.7188L61.9926 67.7235L62.0009 67.728L62.4759 66.848ZM57.7719 62.288L56.908 62.7919L56.9144 62.8025L57.7719 62.288ZM57.0519 50.24L57.9828 50.6051L57.9828 50.6051L57.0519 50.24ZM59.6919 46.016L58.9659 45.3283L58.9654 45.3288L59.6919 46.016ZM63.7719 43.232L64.1498 44.1579L64.1591 44.154L63.7719 43.232ZM73.5159 43.184L73.1021 44.0944L73.1107 44.0983L73.1194 44.1021L73.5159 43.184ZM77.1639 45.728L76.4357 46.4134L76.4409 46.419L76.4463 46.4245L77.1639 45.728ZM79.5639 49.616L78.6235 49.9561L78.6279 49.9683L78.6326 49.9804L79.5639 49.616ZM80.3799 54.464L81.3796 54.4867L81.3797 54.4822L80.3799 54.464ZM80.3319 56.576V57.576H81.3094L81.3316 56.5987L80.3319 56.576ZM59.7399 56.576L58.777 56.8461L58.9818 57.576H59.7399V56.576ZM58.6359 52.64V51.64H57.3168L57.673 52.9101L58.6359 52.64ZM76.0599 52.64L76.8097 53.3016L78.2759 51.64H76.0599V52.64ZM75.3399 53.456H74.3399V56.1008L76.0897 54.1176L75.3399 53.456ZM75.3399 52.304H76.3399V52.2586L76.3358 52.2135L75.3399 52.304ZM74.2839 49.472L75.0913 48.882L75.0913 48.882L74.2839 49.472ZM71.9799 47.504L71.5205 48.3922L71.5205 48.3922L71.9799 47.504ZM64.5879 47.792L65.0634 48.6717L65.0725 48.6668L65.0815 48.6617L64.5879 47.792ZM61.8999 50.672L62.7989 51.11L62.8032 51.1011L61.8999 50.672ZM62.0919 59.936L61.2197 60.4253L61.225 60.4345L62.0919 59.936ZM65.2119 62.912L64.7479 63.7978L64.7479 63.7978L65.2119 62.912ZM73.3239 63.344L72.9667 62.4099L72.9574 62.4136L73.3239 63.344ZM76.8279 61.088L77.6424 60.5078L77.0023 59.6093L76.1707 60.3342L76.8279 61.088ZM79.3239 64.592L80.031 65.2991L80.6292 64.7009L80.1384 64.0118L79.3239 64.592ZM76.4919 66.608L76.0345 65.7186L76.024 65.7242L76.4919 66.608ZM72.9879 68L73.2424 68.9671L73.2509 68.9648L73.2593 68.9624L72.9879 68ZM69.3879 67.48C66.9396 67.48 64.8026 66.9674 62.9508 65.968L62.0009 67.728C64.1811 68.9046 66.6522 69.48 69.3879 69.48V67.48ZM62.9675 65.9772C61.1315 64.9407 59.6907 63.5424 58.6294 61.7735L56.9144 62.8025C58.1571 64.8736 59.8523 66.5153 61.9843 67.7188L62.9675 65.9772ZM58.6357 61.7841C57.6154 60.0352 57.0919 58.0052 57.0919 55.664H55.0919C55.0919 58.3148 55.6883 60.7008 56.9081 62.7919L58.6357 61.7841ZM57.0919 55.664C57.0919 53.7886 57.3941 52.1065 57.9828 50.6051L56.1209 49.8749C55.4297 51.6375 55.0919 53.5714 55.0919 55.664H57.0919ZM57.9828 50.6051C58.5796 49.0835 59.393 47.7871 60.4183 46.7032L58.9654 45.3288C57.7507 46.6129 56.8042 48.1325 56.1209 49.8749L57.9828 50.6051ZM60.4178 46.7037C61.4709 45.5921 62.7119 44.7447 64.1498 44.1578L63.394 42.3062C61.6959 42.9993 60.2168 44.0079 58.9659 45.3283L60.4178 46.7037ZM64.1591 44.154C65.6282 43.537 67.2235 43.224 68.9559 43.224V41.224C66.9763 41.224 65.1156 41.583 63.3846 42.31L64.1591 44.154ZM68.9559 43.224C70.4532 43.224 71.8312 43.5167 73.1021 44.0944L73.9297 42.2736C72.3846 41.5713 70.7226 41.224 68.9559 41.224V43.224ZM73.1194 44.1021C74.4055 44.6574 75.5077 45.4274 76.4357 46.4134L77.8921 45.0426C76.772 43.8526 75.4422 42.9266 73.9123 42.2659L73.1194 44.1021ZM76.4463 46.4245C77.3983 47.4053 78.125 48.5779 78.6235 49.9561L80.5043 49.2759C79.9148 47.6461 79.0415 46.2267 77.8815 45.0315L76.4463 46.4245ZM78.6326 49.9804C79.1558 51.3175 79.4099 52.8017 79.38 54.4458L81.3797 54.4822C81.4138 52.6063 81.1239 50.8585 80.4951 49.2516L78.6326 49.9804ZM79.3801 54.4413L79.3321 56.5533L81.3316 56.5987L81.3796 54.4867L79.3801 54.4413ZM80.3319 55.576H59.7399V57.576H80.3319V55.576ZM60.7027 56.3059L59.5987 52.3699L57.673 52.9101L58.777 56.8461L60.7027 56.3059ZM58.6359 53.64H76.0599V51.64H58.6359V53.64ZM75.31 51.9784L74.59 52.7944L76.0897 54.1176L76.8097 53.3016L75.31 51.9784ZM76.3399 53.456V52.304H74.3399V53.456H76.3399ZM76.3358 52.2135C76.2239 50.9825 75.8094 49.8647 75.0913 48.882L73.4765 50.062C73.9743 50.7433 74.2639 51.5135 74.344 52.3945L76.3358 52.2135ZM75.0913 48.882C74.3906 47.9232 73.5028 47.1659 72.4393 46.6158L71.5205 48.3922C72.3129 48.8021 72.9611 49.3568 73.4765 50.062L75.0913 48.882ZM72.4393 46.6158C71.3633 46.0593 70.1969 45.784 68.9559 45.784V47.784C69.8908 47.784 70.7404 47.9887 71.5205 48.3922L72.4393 46.6158ZM68.9559 45.784C67.1006 45.784 65.4641 46.1449 64.0943 46.9223L65.0815 48.6617C66.0797 48.0951 67.3552 47.784 68.9559 47.784V45.784ZM64.1124 46.9123C62.7313 47.6588 61.6906 48.7819 60.9966 50.2429L62.8032 51.1011C63.3252 50.0021 64.0765 49.2052 65.0634 48.6717L64.1124 46.9123ZM61.0009 50.234C60.3079 51.6564 59.9879 53.369 59.9879 55.328H61.9879C61.9879 53.575 62.2758 52.1836 62.7989 51.11L61.0009 50.234ZM59.9879 55.328C59.9879 57.23 60.3866 58.9402 61.2197 60.4253L62.964 59.4467C62.3251 58.3078 61.9879 56.946 61.9879 55.328H59.9879ZM61.225 60.4345C62.0584 61.884 63.2404 63.0082 64.7479 63.7978L65.6759 62.0262C64.4954 61.4078 63.5973 60.548 62.9588 59.4375L61.225 60.4345ZM64.7479 63.7978C66.2564 64.588 67.9722 64.968 69.8679 64.968V62.968C68.2435 62.968 66.8554 62.644 65.6759 62.0262L64.7479 63.7978ZM69.8679 64.968C71.2288 64.968 72.5066 64.7408 73.6904 64.2744L72.9574 62.4136C72.0292 62.7792 71.0029 62.968 69.8679 62.968V64.968ZM73.681 64.2781C74.9145 63.8064 76.1827 62.9771 77.485 61.8418L76.1707 60.3342C74.9771 61.3749 73.9092 62.0496 72.9667 62.4099L73.681 64.2781ZM76.0134 61.6682L78.5094 65.1722L80.1384 64.0118L77.6424 60.5078L76.0134 61.6682ZM78.6168 63.8849C77.9327 64.569 77.0767 65.1827 76.0345 65.7187L76.9492 67.4973C78.147 66.8813 79.1791 66.151 80.031 65.2991L78.6168 63.8849ZM76.024 65.7242C75.0017 66.2654 73.9 66.7037 72.7164 67.0376L73.2593 68.9624C74.5718 68.5923 75.806 68.1026 76.9598 67.4918L76.024 65.7242ZM72.7334 67.0329C71.5953 67.3324 70.4808 67.48 69.3879 67.48V69.48C70.6629 69.48 71.9484 69.3076 73.2424 68.9671L72.7334 67.0329ZM85.8489 68H84.8489V69H85.8489V68ZM85.8489 32.48V31.48H84.8489V32.48H85.8489ZM90.7929 32.48H91.7929V31.48H90.7929V32.48ZM90.7929 68V69H91.7929V68H90.7929ZM86.8489 68V32.48H84.8489V68H86.8489ZM85.8489 33.48H90.7929V31.48H85.8489V33.48ZM89.7929 32.48V68H91.7929V32.48H89.7929ZM90.7929 67H85.8489V69H90.7929V67Z" fill="#E0E1DD"/>
</g>
<defs>
<filter id="filter0_d_75_2" x="122.92" y="42.224" width="109.285" height="44.256" filterUnits="userSpaceOnUse" color-interpolation-filters="sRGB">
<feFlood flood-opacity="0" result="BackgroundImageFix"/>
<feColorMatrix in="SourceAlpha" type="matrix" values="0 0 0 0 0 0 0 0 0 0 0 0 0 0 0 0 0 0 127 0" result="hardAlpha"/>
<feOffset dx="5" dy="9"/>
<feGaussianBlur stdDeviation="4.5"/>
<feComposite in2="hardAlpha" operator="out"/>
<feColorMatrix type="matrix" values="0 0 0 0 0 0 0 0 0 0 0 0 0 0 0 0 0 0 0.25 0"/>
<feBlend mode="normal" in2="BackgroundImageFix" result="effect1_dropShadow_75_2"/>
<feBlend mode="normal" in="SourceGraphic" in2="effect1_dropShadow_75_2" result="shape"/>
</filter>
<filter id="filter1_d_75_2" x="94.864" y="34.4" width="42.528" height="57.9359" filterUnits="userSpaceOnUse" color-interpolation-filters="sRGB">
<feFlood flood-opacity="0" result="BackgroundImageFix"/>
<feColorMatrix in="SourceAlpha" type="matrix" values="0 0 0 0 0 0 0 0 0 0 0 0 0 0 0 0 0 0 127 0" result="hardAlpha"/>
<feOffset dx="5" dy="9"/>
<feGaussianBlur stdDeviation="4.5"/>
<feComposite in2="hardAlpha" operator="out"/>
<feColorMatrix type="matrix" values="0 0 0 0 0 0 0 0 0 0 0 0 0 0 0 0 0 0 0.25 0"/>
<feBlend mode="normal" in2="BackgroundImageFix" result="effect1_dropShadow_75_2"/>
<feBlend mode="normal" in="SourceGraphic" in2="effect1_dropShadow_75_2" result="shape"/>
</filter>
<filter id="filter2_d_75_2" x="27.4" y="32.48" width="77.3928" height="54" filterUnits="userSpaceOnUse" color-interpolation-filters="sRGB">
<feFlood flood-opacity="0" result="BackgroundImageFix"/>
<feColorMatrix in="SourceAlpha" type="matrix" values="0 0 0 0 0 0 0 0 0 0 0 0 0 0 0 0 0 0 127 0" result="hardAlpha"/>
<feOffset dx="5" dy="9"/>
<feGaussianBlur stdDeviation="4.5"/>
<feComposite in2="hardAlpha" operator="out"/>
<feColorMatrix type="matrix" values="0 0 0 0 0 0 0 0 0 0 0 0 0 0 0 0 0 0 0.25 0"/>
<feBlend mode="normal" in2="BackgroundImageFix" result="effect1_dropShadow_75_2"/>
<feBlend mode="normal" in="SourceGraphic" in2="effect1_dropShadow_75_2" result="shape"/>
</filter>
<linearGradient id="paint0_linear_75_2" x1="111.5" y1="20" x2="111.5" y2="80" gradientUnits="userSpaceOnUse">
<stop stop-color="#1B263B"/>
<stop offset="1" stop-color="#E0E1DD"/>
</linearGradient>
<linearGradient id="paint1_linear_75_2" x1="111.5" y1="20" x2="111.5" y2="80" gradientUnits="userSpaceOnUse">
<stop stop-color="#E0E1DD"/>
<stop offset="1" stop-color="#E0E1DD"/>
</linearGradient>
</defs>
</svg>
