<svg width="200" height="60" viewBox="0 0 200 60" fill="none" xmlns="http://www.w3.org/2000/svg">
<g opacity="0.8" clip-path="url(#clip0_5_49)">
<g filter="url(#filter0_d_5_49)">
<path d="M25.728 41.808L8.4 31.872V27.984L25.728 18.048L28.032 21.648L10.8 31.536V28.32L28.032 38.208L25.728 41.808ZM46.3879 42.48C43.7959 42.48 41.4919 41.936 39.4759 40.848C37.4919 39.728 35.9239 38.208 34.7719 36.288C33.6519 34.368 33.0919 32.16 33.0919 29.664C33.0919 27.68 33.4119 25.872 34.0519 24.24C34.6919 22.608 35.5719 21.2 36.6919 20.016C37.8439 18.8 39.2039 17.872 40.7719 17.232C42.3719 16.56 44.0999 16.224 45.9559 16.224C47.5879 16.224 49.1079 16.544 50.5159 17.184C51.9239 17.792 53.1399 18.64 54.1639 19.728C55.2199 20.816 56.0199 22.112 56.5639 23.616C57.1399 25.088 57.4119 26.704 57.3799 28.464L57.3319 30.576H36.7399L35.6359 26.64H53.0599L52.3399 27.456V26.304C52.2439 25.248 51.8919 24.304 51.2839 23.472C50.6759 22.64 49.9079 21.984 48.9799 21.504C48.0519 21.024 47.0439 20.784 45.9559 20.784C44.2279 20.784 42.7719 21.12 41.5879 21.792C40.4039 22.432 39.5079 23.392 38.8999 24.672C38.2919 25.92 37.9879 27.472 37.9879 29.328C37.9879 31.088 38.3559 32.624 39.0919 33.936C39.8279 35.216 40.8679 36.208 42.2119 36.912C43.5559 37.616 45.1079 37.968 46.8679 37.968C48.1159 37.968 49.2679 37.76 50.3239 37.344C51.4119 36.928 52.5799 36.176 53.8279 35.088L56.3239 38.592C55.5559 39.36 54.6119 40.032 53.4919 40.608C52.4039 41.184 51.2359 41.648 49.9879 42C48.7719 42.32 47.5719 42.48 46.3879 42.48ZM62.8489 42V6.48H67.7929V42H62.8489ZM72.2078 48.336L91.9838 8.4H96.7358L77.0078 48.336H72.2078ZM108.465 42.48C106.353 42.48 104.449 42.112 102.753 41.376C101.057 40.64 99.6494 39.552 98.5294 38.112L101.889 35.232C102.849 36.352 103.889 37.168 105.009 37.68C106.161 38.16 107.457 38.4 108.897 38.4C109.473 38.4 110.001 38.336 110.481 38.208C110.993 38.048 111.425 37.824 111.777 37.536C112.161 37.248 112.449 36.912 112.641 36.528C112.833 36.112 112.929 35.664 112.929 35.184C112.929 34.352 112.625 33.68 112.017 33.168C111.697 32.944 111.185 32.704 110.481 32.448C109.809 32.16 108.929 31.872 107.841 31.584C105.985 31.104 104.465 30.56 103.281 29.952C102.097 29.344 101.185 28.656 100.545 27.888C100.065 27.28 99.7134 26.624 99.4894 25.92C99.2654 25.184 99.1534 24.384 99.1534 23.52C99.1534 22.464 99.3774 21.504 99.8254 20.64C100.305 19.744 100.945 18.976 101.745 18.336C102.577 17.664 103.537 17.152 104.625 16.8C105.745 16.448 106.929 16.272 108.177 16.272C109.361 16.272 110.529 16.432 111.681 16.752C112.865 17.072 113.953 17.536 114.945 18.144C115.937 18.752 116.769 19.472 117.441 20.304L114.609 23.424C114.001 22.816 113.329 22.288 112.593 21.84C111.889 21.36 111.169 20.992 110.433 20.736C109.697 20.48 109.025 20.352 108.417 20.352C107.745 20.352 107.137 20.416 106.593 20.544C106.049 20.672 105.585 20.864 105.201 21.12C104.849 21.376 104.577 21.696 104.385 22.08C104.193 22.464 104.097 22.896 104.097 23.376C104.129 23.792 104.225 24.192 104.385 24.576C104.577 24.928 104.833 25.232 105.153 25.488C105.505 25.744 106.033 26.016 106.737 26.304C107.441 26.592 108.337 26.864 109.425 27.12C111.025 27.536 112.337 28 113.361 28.512C114.417 28.992 115.249 29.552 115.857 30.192C116.497 30.8 116.945 31.504 117.201 32.304C117.457 33.104 117.585 34 117.585 34.992C117.585 36.432 117.169 37.728 116.337 38.88C115.537 40 114.449 40.88 113.073 41.52C111.697 42.16 110.161 42.48 108.465 42.48ZM134.794 42.48C132.202 42.48 129.898 41.936 127.882 40.848C125.898 39.728 124.33 38.208 123.178 36.288C122.058 34.368 121.498 32.16 121.498 29.664C121.498 27.68 121.818 25.872 122.458 24.24C123.098 22.608 123.978 21.2 125.098 20.016C126.25 18.8 127.61 17.872 129.178 17.232C130.778 16.56 132.506 16.224 134.362 16.224C135.994 16.224 137.514 16.544 138.922 17.184C140.33 17.792 141.546 18.64 142.57 19.728C143.626 20.816 144.426 22.112 144.97 23.616C145.546 25.088 145.818 26.704 145.786 28.464L145.738 30.576H125.146L124.042 26.64H141.466L140.746 27.456V26.304C140.65 25.248 140.298 24.304 139.69 23.472C139.082 22.64 138.314 21.984 137.386 21.504C136.458 21.024 135.45 20.784 134.362 20.784C132.634 20.784 131.178 21.12 129.994 21.792C128.81 22.432 127.914 23.392 127.306 24.672C126.698 25.92 126.394 27.472 126.394 29.328C126.394 31.088 126.762 32.624 127.498 33.936C128.234 35.216 129.274 36.208 130.618 36.912C131.962 37.616 133.514 37.968 135.274 37.968C136.522 37.968 137.674 37.76 138.73 37.344C139.818 36.928 140.986 36.176 142.234 35.088L144.73 38.592C143.962 39.36 143.018 40.032 141.898 40.608C140.81 41.184 139.642 41.648 138.394 42C137.178 42.32 135.978 42.48 134.794 42.48ZM151.159 42V16.8H156.151V24.72L155.671 22.8C156.023 21.584 156.615 20.48 157.447 19.488C158.311 18.496 159.287 17.712 160.375 17.136C161.495 16.56 162.647 16.272 163.831 16.272C164.375 16.272 164.887 16.32 165.367 16.416C165.879 16.512 166.279 16.624 166.567 16.752L165.271 22.128C164.887 21.968 164.455 21.84 163.975 21.744C163.527 21.616 163.079 21.552 162.631 21.552C161.767 21.552 160.935 21.728 160.135 22.08C159.367 22.4 158.679 22.864 158.071 23.472C157.495 24.048 157.031 24.736 156.679 25.536C156.327 26.304 156.151 27.152 156.151 28.08V42H151.159ZM172.487 41.808L170.183 38.208L187.415 28.32V31.536L170.183 21.648L172.487 18.048L189.815 27.984V31.872L172.487 41.808Z" fill="url(#paint0_linear_5_49)"/>
<path d="M25.728 41.808L24.7331 43.543L26.3857 44.4906L27.4125 42.8861L25.728 41.808ZM8.4 31.872H6.4V33.0307L7.40514 33.607L8.4 31.872ZM8.4 27.984L7.40514 26.249L6.4 26.8253V27.984H8.4ZM25.728 18.048L27.4125 16.9699L26.3857 15.3654L24.7331 16.313L25.728 18.048ZM28.032 21.648L29.0274 23.3827L30.8481 22.3379L29.7165 20.5699L28.032 21.648ZM10.8 31.536H8.8V34.9895L11.7954 33.2707L10.8 31.536ZM10.8 28.32L11.7954 26.5853L8.8 24.8665V28.32H10.8ZM28.032 38.208L29.7165 39.2861L30.8481 37.518L29.0274 36.4733L28.032 38.208ZM26.7229 40.073L9.39486 30.137L7.40514 33.607L24.7331 43.543L26.7229 40.073ZM10.4 31.872V27.984H6.4V31.872H10.4ZM9.39486 29.719L26.7229 19.783L24.7331 16.313L7.40514 26.249L9.39486 29.719ZM24.0435 19.1261L26.3475 22.7261L29.7165 20.5699L27.4125 16.9699L24.0435 19.1261ZM27.0366 19.9133L9.8046 29.8013L11.7954 33.2707L29.0274 23.3827L27.0366 19.9133ZM12.8 31.536V28.32H8.8V31.536H12.8ZM9.8046 30.0547L27.0366 39.9427L29.0274 36.4733L11.7954 26.5853L9.8046 30.0547ZM26.3475 37.1299L24.0435 40.7299L27.4125 42.8861L29.7165 39.2861L26.3475 37.1299ZM39.4759 40.848L38.4927 42.5896L38.5093 42.599L38.526 42.608L39.4759 40.848ZM34.7719 36.288L33.0443 37.2957L33.0505 37.3064L33.0569 37.317L34.7719 36.288ZM34.0519 24.24L35.9138 24.9702L34.0519 24.24ZM36.6919 20.016L35.24 18.6405L35.2389 18.6416L36.6919 20.016ZM40.7719 17.232L41.5277 19.0837L41.537 19.0799L41.5463 19.076L40.7719 17.232ZM50.5159 17.184L49.6883 19.0047L49.7056 19.0126L49.723 19.0201L50.5159 17.184ZM54.1639 19.728L52.7075 21.0987L52.718 21.1099L52.7287 21.1209L54.1639 19.728ZM56.5639 23.616L54.6831 24.2963L54.6919 24.3207L54.7014 24.3448L56.5639 23.616ZM57.3799 28.464L59.3794 28.5094L59.3795 28.5004L57.3799 28.464ZM57.3319 30.576V32.576H59.2869L59.3314 30.6214L57.3319 30.576ZM36.7399 30.576L34.8142 31.1161L35.2237 32.576H36.7399V30.576ZM35.6359 26.64V24.64H32.9977L33.7102 27.1801L35.6359 26.64ZM53.0599 26.64L54.5596 27.9632L57.4918 24.64H53.0599V26.64ZM52.3399 27.456H50.3399V32.7455L53.8396 28.7792L52.3399 27.456ZM52.3399 26.304H54.3399V26.2133L54.3317 26.1229L52.3399 26.304ZM51.2839 23.472L52.8987 22.292V22.292L51.2839 23.472ZM48.9799 21.504L48.061 23.2804V23.2804L48.9799 21.504ZM41.5879 21.792L42.5389 23.5514L42.5571 23.5416L42.5751 23.5314L41.5879 21.792ZM38.8999 24.672L40.6979 25.5479L40.7022 25.539L40.7064 25.5301L38.8999 24.672ZM39.0919 33.936L37.3476 34.9145L37.3528 34.9237L37.3581 34.9329L39.0919 33.936ZM42.2119 36.912L41.2839 38.6837H41.2839L42.2119 36.912ZM50.3239 37.344L49.6096 35.4759L49.6002 35.4795L49.5908 35.4832L50.3239 37.344ZM53.8279 35.088L55.4568 33.9276L54.1767 32.1306L52.5136 33.5805L53.8279 35.088ZM56.3239 38.592L57.7381 40.0062L58.9345 38.8098L57.9529 37.4316L56.3239 38.592ZM53.4919 40.608L52.5772 38.8294L52.5666 38.8349L52.5561 38.8404L53.4919 40.608ZM49.9879 42L50.4969 43.9342L50.5139 43.9297L50.5308 43.9249L49.9879 42ZM46.3879 40.48C44.0833 40.48 42.1134 39.9987 40.4257 39.088L38.526 42.608C40.8704 43.8733 43.5084 44.48 46.3879 44.48V40.48ZM40.4591 39.1063C38.771 38.1534 37.4575 36.8767 36.4869 35.259L33.0569 37.317C34.3903 39.5393 36.2127 41.3026 38.4927 42.5896L40.4591 39.1063ZM36.4994 35.2803C35.579 33.7024 35.0919 31.8504 35.0919 29.664H31.0919C31.0919 32.4696 31.7247 35.0336 33.0443 37.2957L36.4994 35.2803ZM35.0919 29.664C35.0919 27.8972 35.3763 26.3409 35.9138 24.9702L32.1899 23.5098C31.4475 25.4031 31.0919 27.4628 31.0919 29.664H35.0919ZM35.9138 24.9702C36.4672 23.5589 37.2142 22.3742 38.1448 21.3904L35.2389 18.6416C33.9295 20.0258 32.9165 21.657 32.1899 23.5098L35.9138 24.9702ZM38.1438 21.3915C39.098 20.3842 40.2199 19.6175 41.5277 19.0837L40.0161 15.3803C38.1878 16.1265 36.5897 17.2158 35.24 18.6405L38.1438 21.3915ZM41.5463 19.076C42.8844 18.514 44.3471 18.224 45.9559 18.224V14.224C43.8526 14.224 41.8593 14.606 39.9974 15.388L41.5463 19.076ZM45.9559 18.224C47.3185 18.224 48.5544 18.4894 49.6883 19.0047L51.3435 15.3633C49.6613 14.5986 47.8573 14.224 45.9559 14.224V18.224ZM49.723 19.0201C50.8872 19.5228 51.8756 20.2148 52.7075 21.0987L55.6203 18.3573C54.4042 17.0652 52.9606 16.0612 51.3087 15.3479L49.723 19.0201ZM52.7287 21.1209C53.5766 21.9946 54.2301 23.0438 54.6831 24.2963L58.4446 22.9357C57.8097 21.1802 56.8631 19.6374 55.599 18.335L52.7287 21.1209ZM54.7014 24.3448C55.1718 25.5469 55.408 26.8995 55.3802 28.4276L59.3795 28.5004C59.4158 26.5085 59.108 24.6291 58.4264 22.8872L54.7014 24.3448ZM55.3804 28.4186L55.3324 30.5306L59.3314 30.6214L59.3794 28.5094L55.3804 28.4186ZM57.3319 28.576H36.7399V32.576H57.3319V28.576ZM38.6656 30.0359L37.5616 26.0999L33.7102 27.1801L34.8142 31.1161L38.6656 30.0359ZM35.6359 28.64H53.0599V24.64H35.6359V28.64ZM51.5602 25.3168L50.8402 26.1328L53.8396 28.7792L54.5596 27.9632L51.5602 25.3168ZM54.3399 27.456V26.304H50.3399V27.456H54.3399ZM54.3317 26.1229C54.2038 24.7169 53.7269 23.4254 52.8987 22.292L49.6691 24.652C50.0568 25.1826 50.2839 25.7791 50.3481 26.4851L54.3317 26.1229ZM52.8987 22.292C52.1054 21.2064 51.0978 20.3478 49.8987 19.7276L48.061 23.2804C48.718 23.6202 49.2464 24.0736 49.6691 24.652L52.8987 22.292ZM49.8987 19.7276C48.6748 19.0945 47.35 18.784 45.9559 18.784V22.784C46.7378 22.784 47.4289 22.9535 48.061 23.2804L49.8987 19.7276ZM45.9559 18.784C43.9733 18.784 42.1563 19.1697 40.6007 20.0526L42.5751 23.5314C43.3875 23.0703 44.4825 22.784 45.9559 22.784V18.784ZM40.6368 20.0326C39.0587 20.8856 37.8733 22.1718 37.0933 23.8139L40.7064 25.5301C41.1425 24.6122 41.7491 23.9784 42.5389 23.5514L40.6368 20.0326ZM37.1019 23.7961C36.324 25.3928 35.9879 27.266 35.9879 29.328H39.9879C39.9879 27.678 40.2598 26.4472 40.6979 25.5479L37.1019 23.7961ZM35.9879 29.328C35.9879 31.3721 36.4174 33.2564 37.3476 34.9145L40.8362 32.9575C40.2943 31.9916 39.9879 30.8039 39.9879 29.328H35.9879ZM37.3581 34.9329C38.289 36.552 39.6129 37.8084 41.2839 38.6837L43.1399 35.1403C42.1229 34.6076 41.3667 33.88 40.8257 32.9391L37.3581 34.9329ZM41.2839 38.6837C42.9569 39.56 44.8365 39.968 46.8679 39.968V35.968C45.3792 35.968 44.1549 35.672 43.1399 35.1403L41.2839 38.6837ZM46.8679 39.968C48.3418 39.968 49.7453 39.7215 51.0569 39.2048L49.5908 35.4832C48.7905 35.7985 47.89 35.968 46.8679 35.968V39.968ZM51.0382 39.2121C52.4172 38.6848 53.7855 37.7783 55.1421 36.5955L52.5136 33.5805C51.3742 34.5737 50.4065 35.1712 49.6096 35.4759L51.0382 39.2121ZM52.1989 36.2484L54.6949 39.7524L57.9529 37.4316L55.4568 33.9276L52.1989 36.2484ZM54.9097 37.1778C54.3095 37.7779 53.5416 38.3335 52.5772 38.8294L54.4066 42.3866C55.6822 41.7305 56.8022 40.9421 57.7381 40.0062L54.9097 37.1778ZM52.5561 38.8404C51.5996 39.3468 50.564 39.7595 49.445 40.0751L50.5308 43.9249C51.9077 43.5365 53.2082 43.0212 54.4277 42.3756L52.5561 38.8404ZM49.4789 40.0658C48.4188 40.3448 47.3898 40.48 46.3879 40.48V44.48C47.754 44.48 49.125 44.2952 50.4969 43.9342L49.4789 40.0658ZM62.8489 42H60.8489V44H62.8489V42ZM62.8489 6.48V4.48H60.8489V6.48H62.8489ZM67.7929 6.48H69.7929V4.48H67.7929V6.48ZM67.7929 42V44H69.7929V42H67.7929ZM64.8489 42V6.48H60.8489V42H64.8489ZM62.8489 8.48H67.7929V4.48H62.8489V8.48ZM65.7929 6.48V42H69.7929V6.48H65.7929ZM67.7929 40H62.8489V44H67.7929V40ZM72.2077 48.336L70.4155 47.4485L68.9856 50.336H72.2077V48.336ZM91.9837 8.4V6.4H90.7423L90.1915 7.51247L91.9837 8.4ZM96.7357 8.4L98.5289 9.28579L99.9545 6.4H96.7357V8.4ZM77.0078 48.336V50.336H78.2505L78.8009 49.2218L77.0078 48.336ZM74 49.2235L93.776 9.28753L90.1915 7.51247L70.4155 47.4485L74 49.2235ZM91.9837 10.4H96.7357V6.4H91.9837V10.4ZM94.9426 7.5142L75.2146 47.4502L78.8009 49.2218L98.5289 9.28579L94.9426 7.5142ZM77.0078 46.336H72.2077V50.336H77.0078V46.336ZM102.753 41.376L101.957 43.2107L102.753 41.376ZM98.5294 38.112L97.2278 36.5935L95.7799 37.8346L96.9507 39.3399L98.5294 38.112ZM101.889 35.232L103.408 33.9304L102.106 32.4119L100.588 33.7135L101.889 35.232ZM105.009 37.68L104.178 39.4989L104.209 39.5131L104.24 39.5262L105.009 37.68ZM110.481 38.208L110.997 40.1405L111.038 40.1296L111.078 40.117L110.481 38.208ZM111.777 37.536L110.577 35.936L110.544 35.9613L110.511 35.9881L111.777 37.536ZM112.641 36.528L114.43 37.4224L114.444 37.3945L114.457 37.3661L112.641 36.528ZM112.017 33.168L113.306 31.6382L113.237 31.5807L113.164 31.5295L112.017 33.168ZM110.481 32.448L109.694 34.2863L109.745 34.3084L109.798 34.3276L110.481 32.448ZM107.841 31.584L108.353 29.6506L108.342 29.6477L107.841 31.584ZM103.281 29.952L104.195 28.1729L103.281 29.952ZM100.545 27.888L98.9756 29.1273L98.992 29.148L99.0089 29.1684L100.545 27.888ZM99.4894 25.92L97.576 26.5023L97.5797 26.5144L97.5835 26.5264L99.4894 25.92ZM99.8254 20.64L98.0624 19.6956L98.0561 19.7074L98.0499 19.7194L99.8254 20.64ZM101.745 18.336L102.995 19.8978L103.002 19.8919L101.745 18.336ZM104.625 16.8L104.026 14.892L104.018 14.8945L104.01 14.8971L104.625 16.8ZM111.681 16.752L111.146 18.6791L111.16 18.6827L111.681 16.752ZM114.945 18.144L113.9 19.8492L114.945 18.144ZM117.441 20.304L118.922 21.6482L120.074 20.3799L118.997 19.0473L117.441 20.304ZM114.609 23.424L113.195 24.8382L114.679 26.3225L116.09 24.7682L114.609 23.424ZM112.593 21.84L111.467 23.4925L111.509 23.5215L111.553 23.5484L112.593 21.84ZM110.433 20.736L109.776 22.625L110.433 20.736ZM106.593 20.544L106.135 18.5972L106.593 20.544ZM105.201 21.12L104.092 19.4559L104.058 19.4785L104.025 19.5025L105.201 21.12ZM104.385 22.08L102.597 21.1856V21.1856L104.385 22.08ZM104.097 23.376H102.097V23.4528L102.103 23.5294L104.097 23.376ZM104.385 24.576L102.539 25.3452L102.579 25.4418L102.63 25.5337L104.385 24.576ZM105.153 25.488L103.904 27.0497L103.94 27.0784L103.977 27.1055L105.153 25.488ZM109.425 27.12L109.929 25.1844L109.906 25.1785L109.883 25.1732L109.425 27.12ZM113.361 28.512L112.467 30.3009L112.5 30.3174L112.534 30.3327L113.361 28.512ZM115.857 30.192L114.407 31.5695L114.443 31.6067L114.48 31.642L115.857 30.192ZM116.337 38.88L114.716 37.709L114.71 37.7175L116.337 38.88ZM113.073 41.52L113.917 43.3334L113.073 41.52ZM108.465 40.48C106.588 40.48 104.961 40.1538 103.55 39.5413L101.957 43.2107C103.938 44.0702 106.118 44.48 108.465 44.48V40.48ZM103.55 39.5413C102.157 38.9369 101.019 38.0558 100.108 36.8841L96.9507 39.3399C98.2794 41.0482 99.9579 42.3431 101.957 43.2107L103.55 39.5413ZM99.831 39.6305L103.191 36.7505L100.588 33.7135L97.2278 36.5935L99.831 39.6305ZM100.371 36.5336C101.483 37.8309 102.747 38.8449 104.178 39.4989L105.841 35.861C105.032 35.4911 104.216 34.8731 103.408 33.9304L100.371 36.5336ZM104.24 39.5262C105.67 40.1221 107.234 40.4 108.897 40.4V36.4C107.681 36.4 106.652 36.1979 105.779 35.8338L104.24 39.5262ZM108.897 40.4C109.62 40.4 110.324 40.3198 110.997 40.1405L109.966 36.2755C109.678 36.3522 109.326 36.4 108.897 36.4V40.4ZM111.078 40.117C111.791 39.8941 112.462 39.5603 113.044 39.0839L110.511 35.9881C110.389 36.0877 110.196 36.2019 109.885 36.299L111.078 40.117ZM112.977 39.136C113.58 38.6839 114.084 38.1155 114.43 37.4224L110.853 35.6336C110.815 35.7085 110.743 35.8121 110.577 35.936L112.977 39.136ZM114.457 37.3661C114.776 36.6748 114.929 35.9393 114.929 35.184H110.929C110.929 35.3887 110.89 35.5492 110.825 35.6899L114.457 37.3661ZM114.929 35.184C114.929 33.7936 114.389 32.5501 113.306 31.6382L110.729 34.6978C110.862 34.8099 110.929 34.9104 110.929 35.184H114.929ZM113.164 31.5295C112.624 31.1514 111.912 30.8401 111.165 30.5684L109.798 34.3276C110.459 34.5679 110.771 34.7366 110.87 34.8065L113.164 31.5295ZM111.269 30.6097C110.473 30.2687 109.491 29.9518 108.353 29.6506L107.33 33.5174C108.368 33.7922 109.145 34.0513 109.694 34.2863L111.269 30.6097ZM108.342 29.6477C106.572 29.19 105.204 28.691 104.195 28.1729L102.368 31.7311C103.727 32.429 105.398 33.018 107.341 33.5203L108.342 29.6477ZM104.195 28.1729C103.175 27.6491 102.503 27.1131 102.082 26.6076L99.0089 29.1684C99.8677 30.1989 101.02 31.0389 102.368 31.7311L104.195 28.1729ZM102.115 26.6487C101.777 26.2204 101.543 25.7771 101.395 25.3136L97.5835 26.5264C97.884 27.4709 98.3537 28.3396 98.9756 29.1273L102.115 26.6487ZM101.403 25.3377C101.243 24.812 101.153 24.2106 101.153 23.52H97.1534C97.1534 24.5574 97.288 25.556 97.576 26.5023L101.403 25.3377ZM101.153 23.52C101.153 22.7566 101.313 22.1164 101.601 21.5606L98.0499 19.7194C97.4421 20.8916 97.1534 22.1714 97.1534 23.52H101.153ZM101.588 21.5844C101.94 20.9287 102.404 20.3702 102.995 19.8977L100.496 16.7743C99.4865 17.5818 98.6712 18.5593 98.0624 19.6956L101.588 21.5844ZM103.002 19.8919C103.631 19.3842 104.37 18.9847 105.241 18.7029L104.01 14.8971C102.705 15.3193 101.524 15.9438 100.489 16.7801L103.002 19.8919ZM105.225 18.708C106.139 18.4207 107.12 18.272 108.177 18.272V14.272C106.739 14.272 105.352 14.4753 104.026 14.892L105.225 18.708ZM108.177 18.272C109.179 18.272 110.167 18.407 111.146 18.679L112.217 14.825C110.892 14.457 109.544 14.272 108.177 14.272V18.272ZM111.16 18.6827C112.169 18.9556 113.08 19.3462 113.9 19.8492L115.991 16.4388C114.827 15.7258 113.562 15.1884 112.203 14.8213L111.16 18.6827ZM113.9 19.8492C114.715 20.3484 115.369 20.9212 115.885 21.5607L118.997 19.0473C118.17 18.0228 117.16 17.1556 115.991 16.4388L113.9 19.8492ZM115.96 18.9598L113.128 22.0798L116.09 24.7682L118.922 21.6482L115.96 18.9598ZM116.024 22.0098C115.303 21.2889 114.505 20.6622 113.633 20.1316L111.553 23.5484C112.154 23.9138 112.7 24.3431 113.195 24.8382L116.024 22.0098ZM113.72 20.1875C112.884 19.6175 112.007 19.166 111.09 18.847L109.776 22.625C110.331 22.818 110.895 23.1025 111.467 23.4925L113.72 20.1875ZM111.09 18.847C110.2 18.5372 109.302 18.352 108.417 18.352V22.352C108.749 22.352 109.195 22.4228 109.776 22.625L111.09 18.847ZM108.417 18.352C107.621 18.352 106.856 18.4276 106.135 18.5972L107.051 22.4908C107.419 22.4044 107.87 22.352 108.417 22.352V18.352ZM106.135 18.5972C105.407 18.7686 104.711 19.0429 104.092 19.4559L106.311 22.7841C106.459 22.6851 106.692 22.5754 107.051 22.4908L106.135 18.5972ZM104.025 19.5025C103.418 19.9443 102.934 20.5109 102.597 21.1856L106.174 22.9744C106.221 22.8811 106.281 22.8077 106.378 22.7375L104.025 19.5025ZM102.597 21.1856C102.25 21.8786 102.097 22.6226 102.097 23.376H106.097C106.097 23.1694 106.137 23.0494 106.174 22.9744L102.597 21.1856ZM102.103 23.5294C102.152 24.1566 102.297 24.7645 102.539 25.3452L106.232 23.8068C106.153 23.6195 106.107 23.4274 106.091 23.2226L102.103 23.5294ZM102.63 25.5337C102.951 26.1239 103.381 26.6317 103.904 27.0497L106.403 23.9263C106.285 23.8323 106.203 23.7321 106.141 23.6183L102.63 25.5337ZM103.977 27.1055C104.521 27.5007 105.22 27.8443 105.98 28.1551L107.495 24.4529C106.846 24.1877 106.49 23.9873 106.33 23.8705L103.977 27.1055ZM105.98 28.1551C106.815 28.4965 107.82 28.7969 108.967 29.0668L109.883 25.1732C108.855 24.9311 108.068 24.6875 107.495 24.4529L105.98 28.1551ZM108.922 29.0556C110.441 29.4505 111.609 29.8721 112.467 30.3009L114.256 26.7231C113.065 26.1279 111.61 25.6215 109.929 25.1844L108.922 29.0556ZM112.534 30.3327C113.425 30.7381 114.022 31.1643 114.407 31.5695L117.307 28.8145C116.476 27.9397 115.409 27.2459 114.189 26.6913L112.534 30.3327ZM114.48 31.642C114.889 32.0308 115.148 32.45 115.297 32.9136L119.106 31.6945C118.743 30.558 118.106 29.5692 117.235 28.742L114.48 31.642ZM115.297 32.9136C115.479 33.4846 115.585 34.1705 115.585 34.992H119.585C119.585 33.8295 119.435 32.7234 119.106 31.6945L115.297 32.9136ZM115.585 34.992C115.585 36.0176 115.298 36.9027 114.716 37.709L117.959 40.051C119.04 38.5533 119.585 36.8464 119.585 34.992H115.585ZM114.71 37.7175C114.131 38.5283 113.326 39.1969 112.23 39.7066L113.917 43.3334C115.573 42.5631 116.944 41.4717 117.965 40.0425L114.71 37.7175ZM112.23 39.7066C111.148 40.2099 109.904 40.48 108.465 40.48V44.48C110.418 44.48 112.247 44.1101 113.917 43.3334L112.23 39.7066ZM127.882 40.848L126.899 42.5896L126.916 42.599L126.932 42.608L127.882 40.848ZM123.178 36.288L121.451 37.2957L121.457 37.3064L121.463 37.317L123.178 36.288ZM122.458 24.24L124.32 24.9702L122.458 24.24ZM125.098 20.016L123.646 18.6405L123.645 18.6416L125.098 20.016ZM129.178 17.232L129.934 19.0837L129.943 19.0799L129.953 19.076L129.178 17.232ZM138.922 17.184L138.095 19.0047L138.112 19.0126L138.129 19.0201L138.922 17.184ZM142.57 19.728L141.114 21.0987L141.124 21.1099L141.135 21.1209L142.57 19.728ZM144.97 23.616L143.089 24.2963L143.098 24.3207L143.108 24.3448L144.97 23.616ZM145.786 28.464L147.786 28.5094L147.786 28.5004L145.786 28.464ZM145.738 30.576V32.576H147.693L147.738 30.6214L145.738 30.576ZM125.146 30.576L123.22 31.1161L123.63 32.576H125.146V30.576ZM124.042 26.64V24.64H121.404L122.116 27.1801L124.042 26.64ZM141.466 26.64L142.966 27.9632L145.898 24.64H141.466V26.64ZM140.746 27.456H138.746V32.7455L142.246 28.7792L140.746 27.456ZM140.746 26.304H142.746V26.2133L142.738 26.1229L140.746 26.304ZM139.69 23.472L141.305 22.292V22.292L139.69 23.472ZM137.386 21.504L136.467 23.2804V23.2804L137.386 21.504ZM129.994 21.792L130.945 23.5514L130.963 23.5416L130.981 23.5314L129.994 21.792ZM127.306 24.672L129.104 25.5479L129.108 25.539L129.113 25.5301L127.306 24.672ZM127.498 33.936L125.754 34.9145L125.759 34.9237L125.764 34.9329L127.498 33.936ZM130.618 36.912L129.69 38.6837L130.618 36.912ZM138.73 37.344L138.016 35.4759L138.006 35.4795L137.997 35.4832L138.73 37.344ZM142.234 35.088L143.863 33.9276L142.583 32.1306L140.92 33.5805L142.234 35.088ZM144.73 38.592L146.144 40.0062L147.341 38.8098L146.359 37.4316L144.73 38.592ZM141.898 40.608L140.983 38.8294L140.973 38.8349L140.962 38.8404L141.898 40.608ZM138.394 42L138.903 43.9342L138.92 43.9297L138.937 43.9249L138.394 42ZM134.794 40.48C132.49 40.48 130.52 39.9987 128.832 39.088L126.932 42.608C129.277 43.8733 131.915 44.48 134.794 44.48V40.48ZM128.865 39.1063C127.177 38.1534 125.864 36.8767 124.893 35.259L121.463 37.317C122.797 39.5393 124.619 41.3026 126.899 42.5896L128.865 39.1063ZM124.906 35.2803C123.985 33.7024 123.498 31.8504 123.498 29.664H119.498C119.498 32.4696 120.131 35.0336 121.451 37.2957L124.906 35.2803ZM123.498 29.664C123.498 27.8972 123.783 26.3409 124.32 24.9702L120.596 23.5098C119.854 25.4031 119.498 27.4628 119.498 29.664H123.498ZM124.32 24.9702C124.873 23.5589 125.62 22.3742 126.551 21.3904L123.645 18.6416C122.336 20.0258 121.323 21.657 120.596 23.5098L124.32 24.9702ZM126.55 21.3915C127.504 20.3842 128.626 19.6175 129.934 19.0837L128.422 15.3803C126.594 16.1265 124.996 17.2158 123.646 18.6405L126.55 21.3915ZM129.953 19.076C131.291 18.514 132.753 18.224 134.362 18.224V14.224C132.259 14.224 130.266 14.606 128.404 15.388L129.953 19.076ZM134.362 18.224C135.725 18.224 136.961 18.4894 138.095 19.0047L139.75 15.3633C138.068 14.5986 136.264 14.224 134.362 14.224V18.224ZM138.129 19.0201C139.293 19.5228 140.282 20.2148 141.114 21.0987L144.027 18.3573C142.81 17.0652 141.367 16.0612 139.715 15.3479L138.129 19.0201ZM141.135 21.1209C141.983 21.9946 142.636 23.0438 143.089 24.2963L146.851 22.9357C146.216 21.1802 145.269 19.6374 144.005 18.335L141.135 21.1209ZM143.108 24.3448C143.578 25.5469 143.814 26.8995 143.786 28.4276L147.786 28.5004C147.822 26.5085 147.514 24.6291 146.833 22.8872L143.108 24.3448ZM143.787 28.4186L143.739 30.5306L147.738 30.6214L147.786 28.5094L143.787 28.4186ZM145.738 28.576H125.146V32.576H145.738V28.576ZM127.072 30.0359L125.968 26.0999L122.116 27.1801L123.22 31.1161L127.072 30.0359ZM124.042 28.64H141.466V24.64H124.042V28.64ZM139.966 25.3168L139.246 26.1328L142.246 28.7792L142.966 27.9632L139.966 25.3168ZM142.746 27.456V26.304H138.746V27.456H142.746ZM142.738 26.1229C142.61 24.7169 142.133 23.4254 141.305 22.292L138.075 24.652C138.463 25.1826 138.69 25.7791 138.754 26.4851L142.738 26.1229ZM141.305 22.292C140.512 21.2064 139.504 20.3478 138.305 19.7276L136.467 23.2804C137.124 23.6202 137.653 24.0736 138.075 24.652L141.305 22.292ZM138.305 19.7276C137.081 19.0945 135.756 18.784 134.362 18.784V22.784C135.144 22.784 135.835 22.9535 136.467 23.2804L138.305 19.7276ZM134.362 18.784C132.38 18.784 130.563 19.1697 129.007 20.0526L130.981 23.5314C131.794 23.0703 132.889 22.784 134.362 22.784V18.784ZM129.043 20.0326C127.465 20.8856 126.28 22.1718 125.5 23.8139L129.113 25.5301C129.549 24.6122 130.155 23.9784 130.945 23.5514L129.043 20.0326ZM125.508 23.7961C124.73 25.3928 124.394 27.266 124.394 29.328H128.394C128.394 27.678 128.666 26.4472 129.104 25.5479L125.508 23.7961ZM124.394 29.328C124.394 31.3721 124.824 33.2564 125.754 34.9145L129.242 32.9575C128.701 31.9916 128.394 30.8039 128.394 29.328H124.394ZM125.764 34.9329C126.695 36.552 128.019 37.8084 129.69 38.6837L131.546 35.1403C130.529 34.6076 129.773 33.88 129.232 32.9391L125.764 34.9329ZM129.69 38.6837C131.363 39.56 133.243 39.968 135.274 39.968V35.968C133.785 35.968 132.561 35.672 131.546 35.1403L129.69 38.6837ZM135.274 39.968C136.748 39.968 138.152 39.7215 139.463 39.2048L137.997 35.4832C137.197 35.7985 136.296 35.968 135.274 35.968V39.968ZM139.444 39.2121C140.823 38.6848 142.192 37.7783 143.548 36.5955L140.92 33.5805C139.78 34.5737 138.813 35.1712 138.016 35.4759L139.444 39.2121ZM140.605 36.2484L143.101 39.7524L146.359 37.4316L143.863 33.9276L140.605 36.2484ZM143.316 37.1778C142.716 37.7779 141.948 38.3335 140.983 38.8294L142.813 42.3866C144.088 41.7305 145.208 40.9421 146.144 40.0062L143.316 37.1778ZM140.962 38.8404C140.006 39.3468 138.97 39.7595 137.851 40.0751L138.937 43.9249C140.314 43.5365 141.614 43.0212 142.834 42.3756L140.962 38.8404ZM137.885 40.0658C136.825 40.3448 135.796 40.48 134.794 40.48V44.48C136.16 44.48 137.531 44.2952 138.903 43.9342L137.885 40.0658ZM151.159 42H149.159V44H151.159V42ZM151.159 16.8V14.8H149.159V16.8H151.159ZM156.151 16.8H158.151V14.8H156.151V16.8ZM156.151 24.72L154.211 25.2051L158.151 24.72H156.151ZM155.671 22.8L153.75 22.2439L153.6 22.7619L153.731 23.2851L155.671 22.8ZM157.447 19.488L155.939 18.1744L155.927 18.1885L155.915 18.2028L157.447 19.488ZM160.375 17.136L159.46 15.3574L159.45 15.3629L159.439 15.3684L160.375 17.136ZM165.367 16.416L164.975 18.3772L164.987 18.3795L164.999 18.3817L165.367 16.416ZM166.567 16.752L168.511 17.2207L168.902 15.601L167.379 14.9244L166.567 16.752ZM165.271 22.128L164.502 23.9742L166.666 24.8759L167.215 22.5967L165.271 22.128ZM163.975 21.744L163.426 23.667L163.504 23.6893L163.583 23.7052L163.975 21.744ZM160.135 22.08L160.904 23.9262L160.923 23.9186L160.941 23.9106L160.135 22.08ZM158.071 23.472L159.485 24.8862L158.071 23.472ZM156.679 25.536L158.497 26.3693L158.504 26.3554L158.51 26.3415L156.679 25.536ZM156.151 42V44H158.151V42H156.151ZM153.159 42V16.8H149.159V42H153.159ZM151.159 18.8H156.151V14.8H151.159V18.8ZM154.151 16.8V24.72H158.151V16.8H154.151ZM158.091 24.2349L157.611 22.3149L153.731 23.2851L154.211 25.2051L158.091 24.2349ZM157.592 23.3561C157.865 22.4137 158.322 21.5569 158.98 20.7732L155.915 18.2028C154.908 19.4031 154.181 20.7543 153.75 22.2439L157.592 23.3561ZM158.955 20.8016C159.669 19.982 160.454 19.357 161.311 18.9036L159.439 15.3684C158.12 16.067 156.953 17.01 155.939 18.1744L158.955 20.8016ZM161.29 18.9146C162.145 18.4746 162.985 18.272 163.831 18.272V14.272C162.309 14.272 160.845 14.6454 159.46 15.3574L161.29 18.9146ZM163.831 18.272C164.258 18.272 164.637 18.3097 164.975 18.3772L165.759 14.4548C165.137 14.3303 164.492 14.272 163.831 14.272V18.272ZM164.999 18.3817C165.443 18.4651 165.671 18.5423 165.755 18.5796L167.379 14.9244C166.887 14.7057 166.315 14.5589 165.736 14.4503L164.999 18.3817ZM164.623 16.2833L163.327 21.6593L167.215 22.5967L168.511 17.2207L164.623 16.2833ZM166.04 20.2818C165.516 20.0632 164.955 19.9003 164.367 19.7828L163.583 23.7052C163.956 23.7797 164.259 23.8728 164.502 23.9742L166.04 20.2818ZM164.525 19.821C163.905 19.644 163.272 19.552 162.631 19.552V23.552C162.886 23.552 163.149 23.588 163.426 23.667L164.525 19.821ZM162.631 19.552C161.486 19.552 160.38 19.787 159.33 20.2494L160.941 23.9106C161.49 23.669 162.048 23.552 162.631 23.552V19.552ZM159.366 20.2338C158.349 20.6577 157.443 21.2714 156.657 22.0578L159.485 24.8862C159.915 24.4566 160.386 24.1423 160.904 23.9262L159.366 20.2338ZM156.657 22.0578C155.893 22.8216 155.293 23.7202 154.848 24.7305L158.51 26.3415C158.769 25.7518 159.097 25.2744 159.485 24.8862L156.657 22.0578ZM154.861 24.7027C154.378 25.757 154.151 26.893 154.151 28.08H158.151C158.151 27.411 158.276 26.851 158.497 26.3693L154.861 24.7027ZM154.151 28.08V42H158.151V28.08H154.151ZM156.151 40H151.159V44H156.151V40ZM172.486 41.808L170.802 42.8861L171.829 44.4906L173.481 43.543L172.486 41.808ZM170.182 38.208L169.187 36.4733L167.366 37.518L168.498 39.2861L170.182 38.208ZM187.415 28.32H189.415V24.8665L186.419 26.5853L187.415 28.32ZM187.415 31.536L186.419 33.2707L189.415 34.9895V31.536H187.415ZM170.182 21.648L168.498 20.5699L167.366 22.3379L169.187 23.3827L170.182 21.648ZM172.486 18.048L173.481 16.313L171.829 15.3654L170.802 16.9699L172.486 18.048ZM189.814 27.984H191.814V26.8253L190.809 26.249L189.814 27.984ZM189.814 31.872L190.809 33.607L191.814 33.0307V31.872H189.814ZM174.171 40.7299L171.867 37.1299L168.498 39.2861L170.802 42.8861L174.171 40.7299ZM171.178 39.9427L188.41 30.0547L186.419 26.5853L169.187 36.4733L171.178 39.9427ZM185.415 28.32V31.536H189.415V28.32H185.415ZM188.41 29.8013L171.178 19.9133L169.187 23.3827L186.419 33.2707L188.41 29.8013ZM171.867 22.7261L174.171 19.1261L170.802 16.9699L168.498 20.5699L171.867 22.7261ZM171.492 19.783L188.82 29.719L190.809 26.249L173.481 16.313L171.492 19.783ZM187.814 27.984V31.872H191.814V27.984H187.814ZM188.82 30.137L171.492 40.073L173.481 43.543L190.809 33.607L188.82 30.137Z" fill="url(#paint1_linear_5_49)"/>
</g>
<g filter="url(#filter1_d_5_49)">
<path d="M6 56L193 54" stroke="url(#paint2_diamond_5_49)" stroke-opacity="0.9" stroke-width="7" stroke-linecap="round" shape-rendering="crispEdges"/>
</g>
</g>
<defs>
<filter id="filter0_d_5_49" x="4.40002" y="6.47998" width="199.414" height="59.856" filterUnits="userSpaceOnUse" color-interpolation-filters="sRGB">
<feFlood flood-opacity="0" result="BackgroundImageFix"/>
<feColorMatrix in="SourceAlpha" type="matrix" values="0 0 0 0 0 0 0 0 0 0 0 0 0 0 0 0 0 0 127 0" result="hardAlpha"/>
<feOffset dx="5" dy="9"/>
<feGaussianBlur stdDeviation="4.5"/>
<feComposite in2="hardAlpha" operator="out"/>
<feColorMatrix type="matrix" values="0 0 0 0 0 0 0 0 0 0 0 0 0 0 0 0 0 0 0.25 0"/>
<feBlend mode="normal" in2="BackgroundImageFix" result="effect1_dropShadow_5_49"/>
<feBlend mode="normal" in="SourceGraphic" in2="effect1_dropShadow_5_49" result="shape"/>
</filter>
<filter id="filter1_d_5_49" x="-17.5" y="34.5" width="234" height="49" filterUnits="userSpaceOnUse" color-interpolation-filters="sRGB">
<feFlood flood-opacity="0" result="BackgroundImageFix"/>
<feColorMatrix in="SourceAlpha" type="matrix" values="0 0 0 0 0 0 0 0 0 0 0 0 0 0 0 0 0 0 127 0" result="hardAlpha"/>
<feOffset dy="4"/>
<feGaussianBlur stdDeviation="10"/>
<feComposite in2="hardAlpha" operator="out"/>
<feColorMatrix type="matrix" values="0 0 0 0 0 0 0 0 0 0 0 0 0 0 0 0 0 0 0.25 0"/>
<feBlend mode="normal" in2="BackgroundImageFix" result="effect1_dropShadow_5_49"/>
<feBlend mode="normal" in="SourceGraphic" in2="effect1_dropShadow_5_49" result="shape"/>
</filter>
<linearGradient id="paint0_linear_5_49" x1="99.5" y1="-6" x2="99.5" y2="54" gradientUnits="userSpaceOnUse">
<stop stop-color="white"/>
<stop offset="1" stop-color="#E9E9E9"/>
</linearGradient>
<linearGradient id="paint1_linear_5_49" x1="99.5" y1="-6" x2="99.5" y2="54" gradientUnits="userSpaceOnUse">
<stop stop-color="#00A3FF"/>
<stop offset="1" stop-color="#8F00FF"/>
</linearGradient>
<radialGradient id="paint2_diamond_5_49" cx="0" cy="0" r="1" gradientUnits="userSpaceOnUse" gradientTransform="translate(99.5054 55.5) rotate(89.3872) scale(0.5 93.5054)">
<stop stop-color="#8F00FF"/>
<stop offset="1" stop-color="white" stop-opacity="0"/>
</radialGradient>
<clipPath id="clip0_5_49">
<rect width="200" height="60" fill="white"/>
</clipPath>
</defs>
</svg>
